<svg width="50" height="50" viewBox="0 0 50 50" fill="none" xmlns="http://www.w3.org/2000/svg">
<path fill-rule="evenodd" clip-rule="evenodd" d="M8.33342 4.16699H41.6668C43.9679 4.16699 45.8334 6.03247 45.8334 8.33366V41.667C45.8334 43.9682 43.9679 45.8337 41.6668 45.8337H8.33342C6.03223 45.8337 4.16675 43.9682 4.16675 41.667V8.33366C4.16675 6.03247 6.03223 4.16699 8.33342 4.16699ZM8.33342 8.33366V41.667H41.6667V8.33366H8.33342ZM23.1937 25.0095H27.0831V37.5003H31.2498V25.0095H35.3799V20.8428H31.2498V18.7503C31.2498 17.5997 32.1826 16.667 33.3332 16.667H35.4165V12.5003H33.3332C29.8814 12.5003 27.0831 15.2985 27.0831 18.7503V20.8428H23.1937V25.0095Z" fill="white"/>
</svg>
