<svg width="434" height="759" viewBox="0 0 534 609" fill="none" xmlns="http://www.w3.org/2000/svg">
<path d="M317 402.5C317 483.185 250.74 549 168.5 549C86.2599 549 20 483.185 20 402.5C20 321.815 86.2599 256 168.5 256C250.74 256 317 321.815 317 402.5Z" stroke="black" stroke-width="40"/>
<path d="M430.981 114.131C430.501 103.096 421.167 94.5391 410.131 95.0189L230.301 102.838C219.266 103.317 210.709 112.652 211.189 123.687C211.669 134.723 221.003 143.28 232.039 142.8L391.888 135.85L398.838 295.699C399.317 306.734 408.652 315.291 419.687 314.811C430.723 314.331 439.28 304.997 438.8 293.961L430.981 114.131ZM282.743 284.514L425.743 128.514L396.257 101.486L253.257 257.486L282.743 284.514Z" fill="black"/>
</svg>
