<svg id="Layer_1" data-name="Layer 1" xmlns="http://www.w3.org/2000/svg" viewBox="0 0 108.36 108.36"><defs><style>.cls-1{fill:#fff;}.cls-2{fill:#fd5f2d;}</style></defs><title>AU logo</title><circle class="cls-1" cx="54.18" cy="54.18" r="54.18"/><path class="cls-2" d="M49.94,67.92c.6-9.69.08-22.2-3.14-30.5-2.38-6.14-5.56-8.78-10.62-8.51C16.4,29.94,16.4,62,14.65,76.37c-.07.51,0,.06-.08.34,3,.31,6.25,1.19,8.91-.5.33-.21.09-.38.16-.78s-.05-2.47,0-2.67a47.71,47.71,0,0,1,.82-6.62,5.23,5.23,0,0,1,.24-1.24c.15-.25.11-.09.43-.2,3.43.36,9.94.74,12.67.83s.37.06,2,.12c.38,5.9.78,11.82,1.27,17.72,3,0,5.93.06,8.89,0,0-4.78,0-9.76,0-14.45C49.94,68.49,49.92,68.19,49.94,67.92ZM27.24,56.26c.79-5.27,0-14.86,6-16.77,3.68-1.18,3.88,2,4.91,5.65,0,.11,1,9.14,1.1,10.46C35.3,56.52,31.26,56.21,27.24,56.26Z" transform="translate(-2.93 -2.65)"/><path class="cls-2" d="M99.15,69.56c-2.84-4.35-7.39-5.14-10.38-.44-.86,1.35-.15,3.94-1.54,5.08s-2.51-.81-2.92-2.08a90.88,90.88,0,0,0,3.19-21c0-4.14-.34-10.93-.77-14.44s.37-5.43-2.65-6.39a5.71,5.71,0,0,0-6.41,2.38c.17,9.51.13,23.52-1.51,31.68-.74,3.74-1.11,5.38-1.78,6.38A4.89,4.89,0,0,1,72,73.05a9.48,9.48,0,0,1-2.71,1.08A2.35,2.35,0,0,1,67.06,74a9.22,9.22,0,0,1-2.56-2,1.87,1.87,0,0,1-.49-.67l-.09-.08C59.92,55.54,61.83,47,65.07,32c.23-1.08-.09-1.22-.53-1.36-2.25-.69-4.72-.33-6.84-.69a2.57,2.57,0,0,0-2.94,1s0,0,0,.05,0,0,0,0c-2,13.91-3.31,24.16-1.93,38.34,1,3.93,1.62,8.57,4.68,11.41,4,3.77,8.88,4.16,14,3.9,4.8-.24,7.31-3.31,10.26-6.6C83.74,79.3,85.59,80.49,88,80s3.65-2.07,4.52-4.19c.44-1.06.26-2.27.64-3.29.5-1.33.76-1.65,1.88-.3C97,74.6,101.05,72.46,99.15,69.56Z" transform="translate(-2.93 -2.65)"/></svg>