<svg width="50" height="50" viewBox="0 0 50 50" fill="none" xmlns="http://www.w3.org/2000/svg">
<path fill-rule="evenodd" clip-rule="evenodd" d="M33.3334 4.16699H16.6667C9.76319 4.16699 4.16675 9.76343 4.16675 16.667V33.3337C4.16675 40.2372 9.76319 45.8337 16.6667 45.8337H33.3334C40.237 45.8337 45.8334 40.2372 45.8334 33.3337V16.667C45.8334 9.76343 40.237 4.16699 33.3334 4.16699ZM8.33342 16.667C8.33342 12.0646 12.0644 8.33366 16.6667 8.33366H33.3334C37.9358 8.33366 41.6667 12.0646 41.6667 16.667V33.3337C41.6667 37.936 37.9358 41.667 33.3334 41.667H16.6667C12.0644 41.667 8.33342 37.936 8.33342 33.3337V16.667ZM25.0001 35.417C19.2471 35.417 14.5834 30.7533 14.5834 25.0003C14.5834 19.2474 19.2471 14.5837 25.0001 14.5837C30.753 14.5837 35.4167 19.2474 35.4167 25.0003C35.4167 30.7533 30.753 35.417 25.0001 35.417ZM25.0001 31.2503C28.4519 31.2503 31.2501 28.4521 31.2501 25.0003C31.2501 21.5485 28.4519 18.7503 25.0001 18.7503C21.5483 18.7503 18.7501 21.5485 18.7501 25.0003C18.7501 28.4521 21.5483 31.2503 25.0001 31.2503ZM37.5001 14.5837C37.5001 15.7343 36.5673 16.667 35.4167 16.667C34.2662 16.667 33.3334 15.7343 33.3334 14.5837C33.3334 13.4331 34.2662 12.5003 35.4167 12.5003C36.5673 12.5003 37.5001 13.4331 37.5001 14.5837Z" fill="white"/>
</svg>
