<svg width="185" height="172" viewBox="0 0 185 172" fill="none" xmlns="http://www.w3.org/2000/svg">
<path d="M23.0907 56.2038C23.0527 56.2038 22.6349 55.5202 22.0273 54.039C21.6095 52.9377 20.774 51.4945 14.6975 34.4423C14.6215 34.2144 14.3557 33.151 14.3177 32.9232C14.1278 32.4674 15.2292 31.8598 17.3559 31.0242C21.4956 29.3912 25.7491 28.1759 27.686 33.0751C28.4456 35.012 28.8633 36.8729 28.9013 38.9617C29.0153 41.7341 25.2934 43.3292 23.2046 44.0887L23.1666 44.2027C23.1286 44.2027 24.3819 47.8106 25.6352 51.0767C26.015 52.1022 26.5846 52.9757 26.9644 53.9631C27.1923 54.5328 26.8125 54.9125 26.3188 55.1024C25.2934 55.4822 24.268 55.7481 23.2046 56.2038H23.0907ZM21.8374 39.3795C21.8374 39.4174 21.9513 39.4554 21.9513 39.4174L22.445 39.2275C24.23 38.5439 24.4199 37.5565 23.7363 35.8095C22.9008 33.7207 22.1032 33.6068 20.0904 34.4043C19.8245 34.5182 19.9764 34.6701 20.0524 34.86L21.8374 39.3795Z" fill="#CE2501"/>
<path d="M37.6364 51.4564L30.0787 35.7714L29.7749 34.9739C29.8129 34.3662 30.7623 33.9105 31.294 33.7206C32.8132 32.923 33.079 32.7711 34.1804 34.1383C35.1298 32.4293 36.2312 30.9862 38.0542 30.0367C40.029 29.0113 40.7506 29.6569 41.7001 31.4039C41.738 31.4419 41.776 31.5178 41.814 31.5938C42.1938 32.6192 39.1555 34.3282 37.9782 35.9993C37.0287 37.2905 36.8388 38.9616 37.4085 40.4807L37.7503 41.3922C38.8137 44.2026 39.9151 47.0889 41.2063 49.8613C41.2443 49.9753 41.2823 50.355 41.0924 50.469L38.2061 51.9501C38.0542 52.0261 37.9402 51.9881 37.7883 51.8362L37.6364 51.4564Z" fill="#CE2501"/>
<path d="M44.0168 30.9868C48.4222 26.5434 54.8785 27.265 57.2712 33.3415C57.8028 34.7087 58.1067 35.8101 58.1447 37.2912C58.2206 40.1396 54.8785 43.7855 52.1441 44.8489C50.7389 45.3806 49.3717 45.4186 47.9285 45.1147C44.7004 44.3552 43.6749 42.7221 42.4976 39.7218C41.4342 36.9494 41.852 33.1516 44.0168 30.9868ZM51.4985 40.9371C52.0681 40.7093 52.372 40.3675 52.7517 39.9117C54.119 38.2027 54.005 36.2278 53.2834 34.2909C51.4225 29.5057 44.5864 32.9237 46.6752 38.2407C46.7892 38.5445 46.9791 38.9243 47.1689 39.2281C48.1184 40.9751 49.7894 41.5828 51.4985 40.9371Z" fill="#CE2501"/>
<path d="M68.171 28.7079C66.6139 24.7202 65.9682 23.8846 62.2464 25.3278C60.9931 25.8215 60.9171 26.8469 61.2969 28.0622C62.1324 31.0625 63.1958 34.4046 64.4871 37.291C63.3098 38.0885 62.3983 39 61.2969 39.4177C61.107 39.4937 60.9171 39.1899 60.9171 39.1519L60.8032 38.8481C59.8537 36.4175 56.1319 28.6699 54.6127 24.7202L54.4229 24.1885C54.4229 23.3909 57.575 22.2896 57.7649 22.3655C58.4865 22.6693 58.6384 22.7453 58.9802 23.3909H59.0942C60.1955 21.8718 61.7527 20.9603 63.4996 20.2767L63.7655 20.1628C66.7658 18.9854 68.6647 20.7324 69.9939 23.315C70.7915 24.8341 72.6904 28.9737 74.1715 33.9868C74.2855 34.4426 73.9816 34.5945 73.6398 34.7464C72.9562 35.0123 72.1967 35.1262 71.5131 35.3541C71.0953 35.468 70.6396 35.6199 70.4117 35.0882C69.842 33.8349 69.6141 32.4297 68.171 28.7079Z" fill="#CE2501"/>
<path d="M71.0571 22.8963L74.817 20.8835C72.0066 12.946 71.7787 11.8826 72.1585 11.275C73.1839 10.3635 74.741 9.45204 76.2222 9.41406L79.2984 18.9846C79.3744 18.9466 79.5643 18.9086 79.6402 18.8706L82.9443 17.3515L84.7293 20.9974C79.5643 23.3521 80.3238 23.0862 80.3238 23.1622L83.4001 33.1884C82.9443 34.1759 81.3112 34.9734 80.1339 35.4291C79.8681 35.5431 79.7541 35.5051 79.6022 35.2772L79.3364 34.5556L76.0323 24.6053L72.3864 26.3523L71.0571 22.8963Z" fill="#CE2501"/>
<path d="M86.4384 14.4282C90.8439 9.98479 97.3002 10.7064 99.6928 16.7829C100.224 18.1501 100.528 19.2515 100.566 20.7326C100.642 23.581 97.3002 27.2269 94.5657 28.2903C93.1605 28.822 91.7933 28.86 90.3501 28.5561C87.122 27.7966 86.0966 26.1635 84.9193 23.1632C83.8559 20.3908 84.2736 16.593 86.4384 14.4282ZM93.9201 24.3785C94.4898 24.1507 94.7936 23.8089 95.1734 23.3531C96.5406 21.6441 96.4267 19.6692 95.7051 17.7323C93.8441 12.9471 87.0081 16.3651 89.0969 21.6821C89.2108 21.9859 89.4007 22.3657 89.5906 22.6695C90.54 24.4165 92.2111 25.0242 93.9201 24.3785Z" fill="#CE2501"/>
<path d="M95.0976 4.47775C94.7558 3.60425 94.5279 2.9966 94.2621 2.04714C94.1102 1.62938 94.338 1.2496 94.7558 1.02173C94.8317 0.983755 95.3255 0.907798 97.0725 0.110255C97.1484 0.072277 97.6801 -0.117614 97.832 0.110255L103.719 17.1625C103.909 17.6562 104.174 18.4537 103.643 18.7196C103.567 18.7576 102.617 19.1753 102.351 19.2893L102.086 19.4032C101.934 19.4791 101.668 19.5551 101.554 19.3272C99.3511 14.466 97.0345 9.4529 95.0976 4.47775ZM106.301 21.9477C107.061 22.9352 106.339 24.4923 105.2 24.948C104.516 25.2139 103.415 25.2518 103.035 24.3783C102.086 21.9098 104.098 19.0614 106.301 21.9477Z" fill="#CE2501"/>
<path d="M36.6488 169.151L29.2051 150.732L176.523 91.2197L183.966 109.639C184.194 110.209 184.308 110.816 184.308 111.424C184.308 112.032 184.156 112.601 183.928 113.133C183.701 113.665 183.359 114.159 182.941 114.576C182.523 114.994 182.029 115.336 181.422 115.564L42.5734 171.658C42.0037 171.885 41.3961 171.999 40.7884 171.999C40.1808 171.999 39.6111 171.847 39.0794 171.62C38.5477 171.392 38.054 171.05 37.6362 170.632C37.2185 170.252 36.8767 169.721 36.6488 169.151Z" fill="#EE5B32"/>
<path d="M167.56 68.0156L176.865 91.0684L176.523 91.2203L29.2053 150.732L28.8635 150.846L19.5588 127.831L19.9006 127.679L167.18 68.1675L167.56 68.0156Z" fill="#F2F2F2"/>
<path d="M141.735 17.2764C142.304 17.0485 142.912 16.9346 143.52 16.9346C144.127 16.9346 144.697 17.0865 145.229 17.3144C145.76 17.5422 146.254 17.884 146.672 18.3018C147.09 18.7195 147.431 19.2133 147.659 19.8209L167.18 68.1672L19.9006 127.679L0.341805 79.3328C0.113935 78.7631 0 78.1555 0 77.5478C0 76.9402 0.151913 76.3705 0.379782 75.8388C0.607652 75.3071 0.949455 74.8134 1.36722 74.3956C1.78498 73.9779 2.27869 73.6361 2.88634 73.4082L141.735 17.2764ZM137.785 59.3942C137.785 58.4068 137.481 57.3054 136.949 56.1661C136.418 55.0267 135.696 53.8494 134.823 52.824C133.949 51.7986 132.924 50.8871 131.822 50.2415C130.721 49.5958 129.544 49.2161 128.328 49.254C128.139 49.254 127.949 49.254 127.797 49.292C127.607 49.33 127.417 49.33 127.265 49.368C127.113 49.406 126.923 49.4439 126.733 49.5199C126.543 49.5579 126.392 49.6338 126.202 49.7098C125.252 50.0896 124.303 50.7352 123.467 51.4568C122.632 52.1784 121.872 53.1278 121.264 54.0773C120.657 55.0267 120.125 56.0521 119.783 57.0016C119.442 57.989 119.252 58.9005 119.252 59.736C119.252 60.2297 119.404 60.6855 119.669 61.0653C119.935 61.483 120.315 61.8248 120.771 62.1287C121.226 62.4325 121.758 62.6604 122.366 62.8502C122.973 63.0022 123.657 63.0781 124.341 63.0781C124.607 63.0781 124.834 63.0401 125.062 63.0401C125.29 63.0022 125.48 62.9642 125.708 62.9262C125.898 62.8882 126.088 62.8123 126.24 62.7743C126.392 62.7363 126.581 62.6604 126.733 62.6224C126.885 62.5844 126.999 62.5084 127.151 62.4705C127.303 62.4325 127.417 62.3945 127.569 62.3565C127.721 62.3186 127.873 62.2806 128.025 62.2806C128.177 62.2426 128.366 62.2426 128.556 62.2426C128.746 62.2426 128.936 62.2426 129.088 62.2426C129.24 62.2426 129.392 62.2806 129.544 62.3186C129.696 62.3565 129.848 62.3945 129.961 62.4325C130.113 62.4705 130.227 62.5084 130.379 62.5464C130.531 62.5844 130.683 62.6604 130.873 62.6983C131.063 62.7363 131.215 62.7743 131.405 62.8123C131.595 62.8502 131.822 62.8882 132.05 62.8882C132.278 62.9262 132.506 62.9262 132.772 62.9262C133 62.9262 133.228 62.9262 133.455 62.8882C133.683 62.8503 133.873 62.8502 134.101 62.7743C134.329 62.6983 134.519 62.6983 134.709 62.6224C134.899 62.5464 135.089 62.5084 135.278 62.4325C135.658 62.2806 136 62.0907 136.304 61.8628C136.608 61.6349 136.874 61.4071 137.101 61.1412C137.329 60.8754 137.481 60.6095 137.595 60.3057C137.747 60.0019 137.785 59.6981 137.785 59.3942ZM115.34 42.7598C115.378 43.7472 115.568 44.6967 115.872 45.5322C116.175 46.3677 116.593 47.1273 117.125 47.7349C117.657 48.3426 118.264 48.8363 118.948 49.1781C119.631 49.5199 120.391 49.6718 121.151 49.6338C121.302 49.6338 121.416 49.6338 121.568 49.5958C121.72 49.5958 121.834 49.5579 121.948 49.5199C122.062 49.4819 122.214 49.4439 122.328 49.406C122.442 49.368 122.594 49.33 122.708 49.254C123.277 49.0262 123.809 48.6844 124.265 48.2286C124.72 47.7729 125.138 47.2412 125.48 46.6335C125.822 46.0259 126.088 45.3423 126.24 44.6207C126.392 43.8991 126.467 43.1016 126.467 42.266C126.43 41.2786 126.24 40.3292 125.936 39.4936C125.632 38.6581 125.176 37.8986 124.683 37.2909C124.151 36.6833 123.543 36.1895 122.86 35.8477C122.176 35.5059 121.416 35.354 120.657 35.392C120.505 35.392 120.391 35.392 120.239 35.43C120.087 35.43 119.973 35.4679 119.859 35.5059C119.745 35.5439 119.593 35.5819 119.479 35.6199C119.366 35.6578 119.214 35.6958 119.1 35.7338C118.53 35.9617 117.998 36.3035 117.543 36.7592C117.087 37.2149 116.669 37.7466 116.327 38.3543C115.985 38.9619 115.72 39.6455 115.568 40.3671C115.378 41.1267 115.302 41.9242 115.34 42.7598ZM134.519 49.1781C134.671 49.1781 134.785 49.1781 134.937 49.1401C135.089 49.1401 135.202 49.1021 135.316 49.0642C135.43 49.0262 135.582 48.9882 135.696 48.9502C135.81 48.9122 135.962 48.8743 136.076 48.8363C136.646 48.6084 137.177 48.2666 137.633 47.8109C138.089 47.3551 138.507 46.8234 138.848 46.2158C139.19 45.6081 139.456 44.9245 139.608 44.2029C139.76 43.4814 139.836 42.6838 139.836 41.8483C139.798 40.8609 139.608 39.9114 139.304 39.0759C139 38.2404 138.583 37.4808 138.051 36.8731C137.519 36.2655 136.911 35.7718 136.228 35.43C135.544 35.0882 134.785 34.9362 134.025 34.9742C133.873 34.9742 133.759 34.9742 133.607 35.0122C133.455 35.0122 133.342 35.0502 133.228 35.0882C133.114 35.1261 132.962 35.1641 132.848 35.2021C132.734 35.2401 132.582 35.2781 132.468 35.316C131.898 35.5439 131.367 35.8857 130.911 36.3414C130.455 36.7972 130.037 37.3289 129.696 37.9365C129.354 38.5442 129.088 39.2278 128.936 39.9494C128.784 40.671 128.708 41.4685 128.708 42.304C128.746 43.2915 128.936 44.2409 129.24 45.0764C129.544 45.912 129.961 46.6715 130.493 47.2792C131.025 47.8868 131.633 48.3805 132.316 48.7223C133 49.0641 133.759 49.2161 134.519 49.1781ZM116.023 55.9002C116.061 55.9002 116.061 55.8623 116.099 55.8623C116.137 55.8623 116.137 55.8243 116.175 55.8243C116.213 55.8243 116.213 55.7863 116.251 55.7863C116.289 55.7863 116.289 55.7483 116.327 55.7483C116.783 55.5204 117.163 55.1786 117.429 54.7609C117.695 54.3431 117.884 53.8874 117.922 53.3557C117.998 52.824 117.922 52.2923 117.77 51.7226C117.619 51.153 117.315 50.5833 116.859 49.9756C116.441 49.4439 115.985 48.9502 115.454 48.6084C114.922 48.2666 114.428 47.9628 113.859 47.7729C113.327 47.583 112.757 47.4691 112.226 47.4691C111.694 47.4691 111.2 47.545 110.707 47.7349C110.669 47.7349 110.669 47.7729 110.631 47.7729C110.593 47.7729 110.593 47.8109 110.555 47.8109C110.517 47.8109 110.517 47.8488 110.479 47.8488C110.441 47.8488 110.441 47.8868 110.403 47.8868C109.947 48.1527 109.567 48.4565 109.301 48.8743C109.035 49.292 108.884 49.7478 108.808 50.2795C108.77 50.7732 108.808 51.3428 108.997 51.9125C109.187 52.4822 109.453 53.0519 109.871 53.6595C110.251 54.1912 110.744 54.6849 111.238 55.0267C111.732 55.4065 112.302 55.6724 112.833 55.8623C113.403 56.0521 113.935 56.1281 114.466 56.1661C115.074 56.1661 115.568 56.0901 116.023 55.9002ZM146.026 52.3683C146.406 51.7606 146.634 51.153 146.786 50.5833C146.938 50.0136 146.938 49.4439 146.862 48.9502C146.786 48.4565 146.558 48.0008 146.292 47.583C146.026 47.1652 145.609 46.8994 145.115 46.6715C144.849 46.5576 144.621 46.4816 144.355 46.4437C144.089 46.4057 143.824 46.3677 143.52 46.3677C143.216 46.3677 142.95 46.4057 142.646 46.4816C142.342 46.5576 142.077 46.6335 141.773 46.7475C141.507 46.8614 141.241 46.9753 140.975 47.1652C140.709 47.3551 140.443 47.507 140.216 47.6969C139.95 47.8868 139.722 48.1527 139.494 48.3805C139.266 48.6084 139.076 48.9122 138.848 49.2161C138.469 49.8237 138.203 50.4314 138.051 51.001C137.899 51.5707 137.899 52.1404 138.013 52.6341C138.127 53.1278 138.317 53.5836 138.621 54.0013C138.924 54.3811 139.304 54.6849 139.798 54.9128C140.026 55.0267 140.292 55.1027 140.557 55.1407C140.823 55.1786 141.089 55.2166 141.393 55.2166C141.697 55.2166 141.963 55.1786 142.266 55.1027C142.57 55.0267 142.874 54.9508 143.14 54.8368C143.406 54.7229 143.672 54.609 143.937 54.4191C144.203 54.2292 144.469 54.0773 144.697 53.8874C144.925 53.6975 145.191 53.4696 145.381 53.2038C145.609 52.9379 145.836 52.6721 146.026 52.3683Z" fill="#EE5B32"/>
<path d="M126.164 49.6712C126.354 49.5953 126.506 49.5193 126.695 49.4813C126.885 49.4434 127.037 49.3674 127.227 49.3294C127.417 49.2915 127.569 49.2535 127.759 49.2535C127.949 49.2155 128.139 49.2155 128.291 49.2155C129.468 49.1775 130.683 49.5573 131.785 50.2029C132.886 50.8486 133.911 51.76 134.785 52.7855C135.658 53.8109 136.38 54.9882 136.912 56.1275C137.443 57.2669 137.747 58.4062 137.747 59.3557C137.747 59.6975 137.709 60.0013 137.595 60.3051C137.481 60.609 137.329 60.8748 137.101 61.1407C136.874 61.4065 136.608 61.6344 136.304 61.8622C136 62.0901 135.658 62.242 135.279 62.4319C135.089 62.5079 134.899 62.5838 134.709 62.6218C134.519 62.6978 134.291 62.7357 134.101 62.7737C133.911 62.8117 133.683 62.8497 133.456 62.8877C133.228 62.9256 133 62.9256 132.772 62.9256C132.506 62.9256 132.278 62.9256 132.05 62.8877C131.823 62.8497 131.633 62.8497 131.405 62.8117C131.215 62.7737 131.025 62.7357 130.873 62.6978C130.683 62.6598 130.531 62.5838 130.379 62.5459C130.227 62.5079 130.113 62.4699 129.962 62.4319C129.81 62.3939 129.696 62.356 129.544 62.318C129.392 62.28 129.24 62.28 129.088 62.242C128.936 62.242 128.746 62.204 128.556 62.242C128.366 62.242 128.177 62.242 128.025 62.28C127.873 62.318 127.721 62.318 127.569 62.356C127.417 62.3939 127.303 62.4319 127.151 62.4699C126.999 62.5079 126.885 62.5459 126.733 62.6218C126.582 62.6598 126.43 62.7357 126.24 62.7737C126.088 62.8117 125.898 62.8877 125.708 62.9256C125.518 62.9636 125.29 63.0016 125.062 63.0396C124.835 63.0775 124.607 63.0776 124.341 63.0776C123.619 63.0776 122.974 63.0016 122.366 62.8497C121.758 62.6978 121.227 62.4319 120.771 62.1281C120.315 61.8243 119.935 61.4445 119.669 61.0647C119.404 60.6469 119.252 60.1912 119.252 59.7355C119.252 58.8999 119.404 57.9885 119.783 57.001C120.125 56.0136 120.619 55.0262 121.265 54.0767C121.91 53.1273 122.632 52.2158 123.467 51.4562C124.303 50.6587 125.214 50.051 126.164 49.6712Z" fill="#CE2501"/>
<path d="M110.782 47.7737C111.238 47.5838 111.77 47.5078 112.302 47.5078C112.833 47.5078 113.365 47.6217 113.935 47.8116C114.466 48.0015 114.998 48.2674 115.53 48.6472C116.023 49.0269 116.517 49.4827 116.935 50.0144C117.353 50.5841 117.657 51.1917 117.846 51.7614C118.036 52.331 118.074 52.9007 117.998 53.3944C117.922 53.9261 117.77 54.3819 117.505 54.7996C117.239 55.2174 116.859 55.5592 116.403 55.7871C116.365 55.7871 116.365 55.825 116.327 55.825C116.289 55.825 116.289 55.863 116.251 55.863C116.213 55.863 116.213 55.901 116.175 55.901C116.137 55.901 116.137 55.939 116.099 55.939C115.644 56.1289 115.15 56.2048 114.618 56.2048C114.087 56.2048 113.517 56.0909 112.985 55.901C112.416 55.7111 111.884 55.4453 111.39 55.0655C110.896 54.6857 110.403 54.23 110.023 53.6983C109.605 53.1286 109.301 52.5209 109.149 51.9513C108.96 51.3816 108.922 50.8119 108.96 50.3182C108.998 49.8245 109.187 49.3308 109.453 48.913C109.719 48.4952 110.099 48.1534 110.555 47.9256C110.593 47.9256 110.593 47.8876 110.631 47.8876C110.669 47.8876 110.669 47.8496 110.707 47.8496C110.745 47.8496 110.745 47.8116 110.782 47.8116C110.745 47.8116 110.745 47.8116 110.782 47.7737Z" fill="#CE2501"/>
<path d="M141.735 46.747C142 46.633 142.304 46.5571 142.608 46.4811C142.912 46.4052 143.178 46.3672 143.482 46.3672C143.747 46.3672 144.051 46.3672 144.317 46.4431C144.583 46.4811 144.849 46.5571 145.077 46.671C145.57 46.8989 145.95 47.2027 146.254 47.5825C146.558 47.9623 146.748 48.418 146.824 48.9497C146.9 49.4434 146.9 50.0131 146.748 50.5828C146.596 51.1524 146.368 51.7601 145.988 52.3677C145.798 52.6716 145.608 52.9374 145.38 53.2033C145.153 53.4691 144.925 53.697 144.697 53.8869C144.469 54.0768 144.203 54.2667 143.937 54.4186C143.671 54.5705 143.406 54.7224 143.14 54.8363C142.836 54.9503 142.532 55.0642 142.266 55.1022C141.962 55.1781 141.697 55.2161 141.393 55.2161C141.089 55.2161 140.823 55.2161 140.557 55.1402C140.291 55.1022 140.025 55.0262 139.798 54.9123C139.304 54.6844 138.924 54.3806 138.62 54.0008C138.316 53.621 138.127 53.1653 138.013 52.6336C137.899 52.1399 137.937 51.5702 138.051 51.0005C138.165 50.4309 138.43 49.8232 138.848 49.2156C139.038 48.9117 139.266 48.6459 139.494 48.38C139.722 48.1142 139.95 47.8863 140.215 47.6964C140.481 47.5065 140.709 47.3166 140.975 47.1647C141.203 47.0128 141.469 46.8609 141.735 46.747Z" fill="#CE2501"/>
<path d="M119.062 35.7724C119.176 35.7344 119.328 35.6964 119.442 35.6585C119.556 35.6205 119.707 35.5825 119.821 35.5445C119.935 35.5066 120.087 35.5066 120.201 35.4686C120.353 35.4686 120.467 35.4306 120.619 35.4306C121.416 35.3926 122.138 35.5825 122.822 35.8863C123.505 36.2281 124.113 36.7219 124.645 37.3295C125.176 37.9372 125.594 38.6967 125.898 39.5322C126.202 40.3678 126.392 41.3172 126.43 42.3047C126.468 43.1402 126.392 43.8997 126.202 44.6593C126.05 45.3809 125.784 46.0645 125.442 46.6722C125.1 47.2798 124.721 47.8115 124.227 48.2672C123.771 48.723 123.239 49.0648 122.67 49.2926C122.556 49.3306 122.404 49.3686 122.29 49.4066C122.176 49.4446 122.024 49.4825 121.91 49.5205C121.796 49.5585 121.644 49.5585 121.53 49.5965C121.378 49.5965 121.265 49.6345 121.113 49.6345C120.315 49.6724 119.594 49.4825 118.91 49.1787C118.226 48.8369 117.619 48.3432 117.087 47.7355C116.555 47.1279 116.137 46.3683 115.834 45.5328C115.53 44.6973 115.34 43.7478 115.302 42.7604C115.264 41.9249 115.34 41.1653 115.53 40.4057C115.682 39.6842 115.948 39.0006 116.289 38.3929C116.631 37.7852 117.011 37.2536 117.505 36.7978C117.96 36.3421 118.492 36.0003 119.062 35.7724Z" fill="#CE2501"/>
<path d="M132.43 35.2783C132.544 35.2403 132.696 35.2023 132.81 35.1643C132.924 35.1263 133.076 35.0884 133.19 35.0504C133.304 35.0124 133.456 35.0124 133.57 34.9744C133.684 34.9365 133.835 34.9365 133.987 34.9365C134.785 34.8985 135.506 35.0884 136.19 35.3922C136.874 35.734 137.481 36.2277 138.013 36.8354C138.545 37.443 138.962 38.2026 139.266 39.0381C139.57 39.8736 139.76 40.8231 139.798 41.8105C139.836 42.646 139.76 43.4056 139.57 44.1652C139.418 44.8867 139.152 45.5704 138.811 46.178C138.469 46.7857 138.051 47.3174 137.595 47.7731C137.14 48.2288 136.608 48.5706 136.038 48.7985C135.924 48.8365 135.81 48.8745 135.658 48.9124C135.506 48.9504 135.393 48.9884 135.279 49.0264C135.165 49.0644 135.013 49.0644 134.899 49.1023C134.785 49.1403 134.633 49.1403 134.481 49.1403C133.684 49.1783 132.962 48.9884 132.278 48.6846C131.595 48.3807 130.987 47.849 130.455 47.2414C129.924 46.6337 129.506 45.8742 129.202 45.0387C128.898 44.2031 128.708 43.2537 128.67 42.2662C128.632 41.4307 128.708 40.6712 128.898 39.9116C129.05 39.19 129.316 38.5064 129.658 37.8988C130 37.2911 130.379 36.7594 130.873 36.3037C131.329 35.8859 131.861 35.5061 132.43 35.2783Z" fill="#CE2501"/>
</svg>
