<svg width="168" height="172" viewBox="0 0 168 172" fill="none" xmlns="http://www.w3.org/2000/svg">
<mask id="mask0" mask-type="alpha" maskUnits="userSpaceOnUse" x="0" y="0" width="168" height="172">
<rect width="168" height="172" rx="5" fill="#C4C4C4"/>
</mask>
<g mask="url(#mask0)">
<path d="M91.1216 -13.8096C91.1216 -13.8096 130.999 -10.8056 152.382 11.36L91.1216 -13.8096Z" fill="#299DE2"/>
<path d="M78.2294 16.3664C77.7848 32.1144 76.8957 53.0056 74.6284 60.8796C70.3606 75.8539 56.6237 92.5577 49.6441 100.432C47.5991 102.753 45.6431 105.165 43.8204 107.714C42.6645 109.353 41.0196 111.173 39.0191 111.628C39.0191 111.628 36.8408 112.584 37.7299 115.087C38.619 117.591 44.3538 112.994 44.3538 112.994L39.9527 116.544C42.4422 120.868 49.2885 116.134 50.4888 115.178C52.5782 113.54 57.824 107.805 57.824 107.805C65.7372 98.9753 81.5191 82.1804 86.7205 66.4779C90.0102 56.5557 90.7215 28.6098 90.8549 10.1309L78.2294 16.3664Z" fill="#D1A6A1"/>
<path d="M97.6566 10.448C93.4778 20.5522 78.5405 16.4104 78.5405 16.4104C78.6294 9.62875 78.6294 3.75737 78.6739 0.207237C78.6739 0.207237 80.5411 -9.44185 89.0322 -12.901C97.4788 -16.3601 97.0343 -7.48472 97.0343 -7.48472C97.0343 -7.48472 97.4344 0.025178 97.6566 10.448Z" fill="#29ABE2" stroke="#299FE2" stroke-miterlimit="10"/>
<path d="M142.602 178.989H82.4082L84.7199 59.9229H145.536L142.602 178.989Z" fill="#42210B"/>
<path d="M98.5905 -12.4902C97.4347 -11.853 93.567 -11.2158 91.8332 -11.4889C91.6998 -11.3979 91.6109 -11.3069 91.4775 -11.1703L91.5665 50.6385C93.1669 49.3185 96.3233 48.9544 98.6794 49.8647L98.5905 -12.4902Z" fill="#299DE2"/>
<path d="M88.0542 -7.71277C87.743 -7.34865 87.4318 -6.93902 87.0761 -6.57491C87.0761 -6.57491 87.0761 -6.52939 87.0317 -6.52939C86.4982 -5.75564 85.9203 -4.98189 85.4313 -4.20815C84.8089 -3.25234 84.2754 -2.25102 83.6975 -1.29522C83.6975 -1.2497 83.6975 -1.20419 83.6975 -1.15867C83.653 -0.658013 83.4307 -0.111842 83.2974 0.388818C82.9862 1.79977 82.7194 3.21073 82.3193 4.57616L82.4083 58.2833L91.5662 50.6369L91.4773 -11.1719C90.277 -10.0795 89.1211 -8.94166 88.0542 -7.71277Z" fill="#299DE2"/>
<path d="M81.564 6.89936C81.5196 6.99039 81.4751 7.03591 81.4751 7.12694L81.564 59.9238C81.564 59.3777 81.8308 58.786 82.4531 58.2853L82.3642 4.57812C82.1419 5.35187 81.8752 6.12562 81.564 6.89936Z" fill="#299DE2"/>
<path d="M81.564 6.89874C81.5196 6.98977 81.4751 7.03528 81.4751 7.12631L81.564 59.9232C81.564 60.4694 81.8307 61.0156 82.3642 61.5162C82.3198 42.6277 82.3198 23.7391 82.2753 4.85059C82.0975 5.5333 81.8308 6.21602 81.564 6.89874Z" fill="#299DE2"/>
<path d="M148.381 7.89916C148.204 7.76262 148.07 7.58056 147.892 7.44402C147.314 6.85233 146.736 6.26064 146.159 5.66895C146.07 5.57792 145.403 4.94072 145.003 4.57661C144.514 4.25801 143.58 3.57528 143.447 3.48425C142.558 2.89256 141.668 2.30088 140.735 1.70919C139.535 0.935442 138.29 0.161695 137.045 -0.566539L105.881 -12.8555C105.57 -12.81 105.214 -12.7644 104.903 -12.7644C104.37 -12.7189 103.836 -12.7189 103.303 -12.7189L98.6794 49.7726L148.47 69.0707L148.381 7.89916Z" fill="#299DE2"/>
<path d="M133.444 16.4112L84.4533 -2.56836C84.1866 -2.15873 83.9643 -1.70358 83.6975 -1.29395C83.6975 -1.24844 83.6975 -1.20292 83.6975 -1.15741C83.6975 -1.11189 83.6531 -1.02086 83.6531 -0.97535L83.742 62.2899L133.533 81.5881L133.444 16.4112Z" fill="#299DE2"/>
<path d="M133.178 16.6382L84.3203 -2.2959C84.098 -1.93178 83.9202 -1.61318 83.6979 -1.24906C83.6979 -1.20355 83.6979 -1.15803 83.6979 -1.11252C83.6534 -0.748401 83.5201 -0.384287 83.4312 -0.0201707L83.5201 62.5623L133.311 81.8605L133.178 16.6382Z" fill="#299DE2"/>
<path d="M83.2976 0.388874C82.942 1.89085 82.6753 3.34733 82.2751 4.80379C82.3196 23.6923 82.3196 42.5809 82.3641 61.4694C82.7197 61.788 83.2087 62.0611 83.7867 62.2887C83.7422 43.3546 83.7422 18.3216 83.6977 -0.976562C83.6088 -0.521417 83.431 -0.0207568 83.2976 0.388874Z" fill="#299DE2"/>
<path d="M83.2975 0.390692C82.7641 2.62091 82.4084 4.80561 81.5638 6.89928C81.3859 7.30891 81.2081 7.67303 81.0303 8.08266L81.1192 59.9237C81.1192 60.9251 81.9639 61.9264 83.5643 62.5181L83.4754 -0.0644531C83.3864 0.117605 83.342 0.254149 83.2975 0.390692Z" fill="#299DE2"/>
<path d="M148.381 7.90039L148.47 69.163C149.937 69.7092 150.693 70.6194 150.693 71.5753L150.604 9.85752C149.804 9.26583 149.048 8.58311 148.381 7.90039Z" fill="#299DE2"/>
<path d="M149.048 8.53613L140.557 15.6364L140.646 80.8588L149.804 73.2123L149.715 9.12782C149.493 8.94577 149.271 8.76371 149.048 8.53613Z" fill="#299DE2"/>
<path d="M149.315 8.76465L140.913 15.7739L141.002 80.9962L150.16 73.3498L150.071 9.44737C149.804 9.21979 149.537 8.99222 149.315 8.76465Z" fill="#299DE2"/>
<path d="M149.715 9.12891L149.804 73.2134C150.427 72.7127 150.693 72.121 150.693 71.5749C150.649 53.1415 150.649 28.9732 150.604 9.85713C150.293 9.62956 149.982 9.40199 149.715 9.12891Z" fill="#299DE2"/>
<path d="M150.07 9.44824L150.159 73.3507C150.826 72.8045 151.137 72.1673 151.137 71.5756L151.048 10.222C150.693 9.9489 150.382 9.67581 150.07 9.44824Z" fill="#299DE2"/>
<path d="M140.557 15.6367L140.646 80.8591C139.045 82.179 135.889 82.5431 133.533 81.6328L133.444 16.4105C135.8 17.3208 138.956 17.0022 140.557 15.6367Z" fill="#299DE2"/>
<path d="M104.904 -12.7185C103.614 -12.6275 102.37 -12.6275 101.125 -12.673L139.001 0.662738C137.979 0.0255337 136.956 -0.566155 135.934 -1.15784L105.926 -12.8096C105.57 -12.7641 105.215 -12.7185 104.904 -12.7185Z" fill="#299DE2"/>
<path d="M149.048 8.53622L140.557 15.6365C138.957 16.9564 135.8 17.3205 133.444 16.4102L84.4537 -2.56934C84.4092 -2.47831 84.3648 -2.38728 84.3203 -2.34176L133.178 16.5923C135.712 17.5936 139.179 17.184 140.913 15.773L149.315 8.76379C149.226 8.71828 149.137 8.62725 149.048 8.53622Z" fill="#299DE2"/>
<path d="M147.892 7.44447C147.314 6.85278 146.736 6.2611 146.158 5.6694C146.069 5.57838 145.402 4.94118 145.002 4.57706C144.513 4.25846 143.58 3.57574 143.446 3.4847C142.557 2.89302 141.668 2.30133 140.735 1.70964C140.246 1.39104 139.756 1.11795 139.267 0.79935L99.6571 -12.764C97.6566 -12.9005 95.656 -13.0826 93.6555 -13.2646C93.3888 -12.946 93.1221 -12.6274 92.8109 -12.3999C91.1215 -10.9434 89.5211 -9.39591 88.0541 -7.71187C87.7429 -7.34776 87.4317 -6.93813 87.076 -6.57401C87.076 -6.57401 87.076 -6.5285 87.0316 -6.5285C86.4981 -5.75475 85.9202 -4.981 85.4312 -4.20725C85.0755 -3.66108 84.7643 -3.11491 84.4531 -2.56873L133.444 16.4108C135.755 17.3211 138.956 16.957 140.557 15.6371L149.048 8.53682C148.648 8.17271 148.248 7.80859 147.892 7.44447Z" fill="#299DE2"/>
<path d="M140.913 15.8203L141.002 81.0427C139.268 82.4991 135.8 82.8633 133.266 81.8619L133.177 16.6396C135.711 17.6409 139.179 17.2313 140.913 15.8203Z" fill="#299DE2"/>
<path d="M81.297 13.9989C81.297 13.9989 79.1186 -7.07432 92.7666 -14.038C92.7666 -14.038 100.991 -14.9483 105.926 -12.8091" fill="#299DE2"/>
<path d="M113.794 72.3037V178.99" stroke="#754C24" stroke-width="2" stroke-miterlimit="10"/>
<path d="M84.7198 89.8727L133.221 48.9551L132.999 119.412L84.542 160.329L84.7198 89.8727Z" fill="#C69C6D"/>
<path d="M15.6348 60.9697L64.0919 20.0977L133.221 48.9539L84.7195 89.8715L15.6348 60.9697Z" fill="#C69C6D"/>
<path d="M84.7199 89.8715L84.542 160.328L15.4128 131.426L15.6351 60.9697L84.7199 89.8715Z" fill="#C69C6D"/>
<path d="M84.7199 89.8725L84.542 160.329L15.4128 131.427L15.6351 60.9707L84.7199 89.8725ZM84.7199 89.8725L133.221 48.9549L64.0922 20.0986L15.6351 60.9707" stroke="#754C24" stroke-miterlimit="10"/>
<path d="M84.542 160.328L132.999 119.411L133.221 48.9541" stroke="#754C24" stroke-miterlimit="10"/>
<path d="M75.6958 147.813V149.042L71.8726 147.494L71.917 146.22L75.6958 147.813Z" fill="#42210B"/>
<path d="M74.0949 133.065L78.0515 140.939L75.8732 140.029L75.7398 147.175L71.9166 145.627L72.0499 138.482L69.8716 137.571L74.0949 133.065Z" fill="#42210B"/>
<path d="M37.5522 102.389L37.819 102.161C38.1746 101.842 38.7081 101.751 39.286 101.979C39.3749 102.024 39.4639 102.024 39.5528 102.07L39.286 102.298C39.1971 102.252 39.1082 102.252 39.0193 102.207C38.3969 101.979 37.9079 102.07 37.5522 102.389Z" fill="#CE2501"/>
<path d="M42.4425 109.352L42.1758 109.58C42.7093 109.125 42.9315 108.169 42.6648 106.849C42.1758 104.71 40.7087 102.844 39.2861 102.252L39.5529 102.024C40.9755 102.616 42.4425 104.482 42.9315 106.621C43.1983 107.987 42.976 108.897 42.4425 109.352Z" fill="#CE2501"/>
<path d="M39.2857 102.297C40.7083 102.889 42.1753 104.755 42.6644 106.894C43.1534 109.124 42.1753 110.262 40.7083 109.807C40.6194 109.761 40.5749 109.761 40.486 109.716C39.1079 109.124 37.5075 107.212 37.1074 105.119C36.6628 102.934 37.5519 101.705 39.0634 102.206C39.1079 102.206 39.1968 102.251 39.2857 102.297Z" fill="#CE2501"/>
<path d="M37.2852 97.6553L37.5519 97.4277C35.2847 99.3393 33.8621 102.389 33.8176 106.303C33.6398 115.497 40.8861 126.056 49.9107 129.789L49.644 130.016C40.5749 126.284 33.3286 115.725 33.5509 106.531C33.5953 102.616 34.9735 99.5669 37.2852 97.6553Z" fill="#42210B"/>
<path d="M62.8917 128.831L62.625 129.059C59.5575 131.653 54.8452 132.245 49.5994 130.06L49.8661 129.832C55.1119 131.972 59.8243 131.425 62.8917 128.831Z" fill="#42210B"/>
<path d="M42.3086 112.537L42.5753 112.31C44.0424 111.081 46.7542 110.489 49.1104 111.49L48.8436 111.718C46.4875 110.762 43.7756 111.308 42.3086 112.537Z" fill="#CE2501"/>
<path d="M53.7339 123.689L53.4672 123.917C53.6006 123.826 53.6895 123.689 53.7339 123.553C54.8009 121.323 53.5561 115.224 50.3553 112.675C49.8663 112.265 49.3328 111.992 48.7993 111.765L49.0661 111.537C49.5995 111.765 50.133 112.083 50.622 112.447C53.7784 114.996 55.0232 121.095 54.0007 123.325C53.9562 123.462 53.8673 123.598 53.7339 123.689Z" fill="#CE2501"/>
<path d="M48.8439 111.717C49.3774 111.944 49.9108 112.263 50.3999 112.627C53.5562 115.176 54.801 121.275 53.7785 123.505C53.4229 124.233 52.4448 124.324 51.289 123.869C50.711 123.642 50.1331 123.278 49.5107 122.777C48.7994 122.231 48.3993 121.685 48.0437 121.229C47.7325 120.82 47.4213 120.456 46.9323 120.046C46.4433 119.636 46.0432 119.454 45.6431 119.272C45.154 119.045 44.6206 118.817 43.9537 118.225C42.0866 116.723 41.0196 114.675 41.5531 113.537C42.3533 111.717 45.8653 110.488 48.8439 111.717Z" fill="#CE2501"/>
<path d="M56.4016 118.864L56.6684 118.636C56.8906 118.454 57.2018 118.272 57.5575 118.181C58.4021 117.954 59.3357 118.045 60.1804 118.363L59.9136 118.591C59.069 118.227 58.1354 118.136 57.2907 118.409C56.9351 118.5 56.6239 118.636 56.4016 118.864Z" fill="#CE2501"/>
<path d="M62.2251 123.416L61.9583 123.643C62.8475 122.915 62.8919 121.595 62.0473 120.412C61.5138 119.638 60.7136 119.001 59.8245 118.637L60.0912 118.409C60.9803 118.773 61.7805 119.41 62.314 120.184C63.1587 121.368 63.1142 122.642 62.2251 123.416Z" fill="#CE2501"/>
<path d="M59.9133 118.592C60.8024 118.956 61.6026 119.593 62.1361 120.367C63.2031 121.914 62.8474 123.553 61.1581 124.099C60.3579 124.372 59.4243 124.281 58.5796 123.917C57.6905 123.553 56.8458 122.916 56.3568 122.142C55.3343 120.64 55.6011 118.91 57.3349 118.41C58.1351 118.137 59.0686 118.228 59.9133 118.592Z" fill="#CE2501"/>
<path d="M44.7095 100.521L44.9762 100.294C45.9098 99.52 47.1546 99.338 48.3549 99.8386L48.0881 100.066C46.8878 99.5655 45.6431 99.7021 44.7095 100.521Z" fill="#CE2501"/>
<path d="M50.3107 108.987L50.044 109.215C50.4441 108.851 50.7997 108.396 51.0664 107.804C52.0889 105.483 51.2443 102.388 49.1993 100.749C48.8436 100.476 48.4435 100.248 48.0879 100.066L48.3546 99.8389C48.7103 99.9754 49.1104 100.203 49.466 100.522C51.5555 102.16 52.4001 105.255 51.3332 107.576C51.1109 108.168 50.7553 108.623 50.3107 108.987Z" fill="#CE2501"/>
<path d="M48.0883 100.067C48.444 100.204 48.8441 100.431 49.1997 100.75C51.2892 102.389 52.1338 105.484 51.0669 107.805C50.2222 109.716 48.3995 110.399 46.6213 109.671C46.2212 109.534 45.8655 109.307 45.5099 108.988C43.4204 107.35 42.5758 104.255 43.6427 101.933C44.5318 100.022 46.3101 99.3391 48.0883 100.067Z" fill="#CE2501"/>
<path d="M53.6453 107.53L53.912 107.303C54.8456 106.529 56.0903 106.347 57.2907 106.847L57.0239 107.075C55.7792 106.574 54.5344 106.756 53.6453 107.53Z" fill="#CE2501"/>
<path d="M59.2467 116.043L58.98 116.271C59.3801 115.906 59.7358 115.451 60.0025 114.86C61.025 112.538 60.1803 109.443 58.1353 107.805C57.7797 107.532 57.3796 107.304 57.0239 107.122L57.2907 106.895C57.6463 107.031 58.0464 107.259 58.4021 107.577C60.4915 109.216 61.3362 112.311 60.2692 114.632C60.0025 115.178 59.6468 115.679 59.2467 116.043Z" fill="#CE2501"/>
<path d="M57.0236 107.075C57.3793 107.212 57.7794 107.439 58.135 107.758C60.2244 109.396 61.0691 112.491 60.0022 114.813C59.1575 116.724 57.3348 117.407 55.601 116.679C55.2009 116.542 54.8453 116.315 54.4896 115.996C52.4002 114.357 51.5555 111.262 52.6225 108.941C53.4227 107.03 55.2454 106.347 57.0236 107.075Z" fill="#CE2501"/>
<path d="M35.5518 95.5604L35.8185 95.3328C39.3305 92.3744 44.6652 91.7372 50.5779 94.195L50.3112 94.4226C44.3985 91.9648 39.0638 92.5565 35.5518 95.5604Z" fill="#42210B"/>
<path d="M64.5814 130.925L64.3147 131.152C66.8931 128.967 68.4936 125.508 68.5825 121.048C68.8048 110.58 60.6248 98.6548 50.311 94.4219L50.5778 94.1943C60.8916 98.4727 69.0715 110.398 68.8492 120.82C68.7603 125.281 67.2043 128.74 64.5814 130.925Z" fill="#42210B"/>
<path d="M50.3109 94.4216C60.6247 98.6999 68.8046 110.625 68.5824 121.048C68.3601 131.516 59.869 136.523 49.5552 132.29C39.2414 128.057 31.0614 116.087 31.2837 105.618C31.506 95.1498 40.0416 90.1432 50.3109 94.4216ZM49.6441 130.014C58.7131 133.746 66.2262 129.331 66.404 120.137C66.5818 110.943 59.3355 100.384 50.3109 96.6518C41.2419 92.9196 33.7288 97.3345 33.551 106.528C33.3287 115.722 40.575 126.282 49.6441 130.014Z" fill="#42210B"/>
<path d="M47.51 74.3046L97.123 33.8877" stroke="#603813" stroke-miterlimit="10"/>
<path d="M141.535 40.7614C142.202 56.5094 142.824 77.4006 140.823 85.4112C137.045 100.613 122.374 118.273 114.861 126.602C112.638 129.06 110.549 131.608 108.637 134.294C107.437 135.978 105.614 137.935 103.391 138.527C103.391 138.527 100.902 139.619 102.147 142.077C103.391 144.489 109.482 139.3 109.482 139.3C106.77 141.531 104.814 143.397 104.814 143.397C108.015 147.539 115.617 142.35 116.951 141.303C119.262 139.528 124.953 133.429 124.953 133.429C133.444 124.053 150.515 106.211 155.361 90.1902C158.384 80.086 157.094 52.14 155.761 33.6611L141.535 40.7614Z" fill="#D1A6A1" stroke="#D19C8B" stroke-miterlimit="10"/>
<path d="M155.761 33.7077C153.093 43.7665 141.535 40.7625 141.535 40.7625C141.268 34.2084 140.957 28.5191 140.824 25.06C140.824 25.06 139.312 14.5916 145.58 10.6319C152.916 6.03488 154.383 16.3667 154.383 16.3667C154.383 16.3667 155.05 23.6035 155.761 33.7077Z" fill="#29ABE2" stroke="#299FE2" stroke-miterlimit="10"/>
<path d="M132.777 -29.5573V-12.7169C132.777 -4.38774 126.864 2.57599 119.173 3.98694H119.129C118.195 4.169 117.217 4.26003 116.195 4.26003H115.884C114.861 4.26003 113.839 4.169 112.861 3.98694C105.125 2.53048 99.2571 -4.43325 99.2571 -12.7169V-29.5573C99.2571 -38.7967 113.261 -39.707 115.884 -39.707C118.507 -39.707 131.754 -39.707 132.777 -29.5573Z" fill="#D1A6A1" stroke="#D19C8B" stroke-miterlimit="10"/>
</g>
</svg>
