<svg width="145" height="172" viewBox="0 0 145 172" fill="none" xmlns="http://www.w3.org/2000/svg">
<path d="M36.4351 103.139C36.4737 103.101 36.5123 103.062 36.5509 103.062C37.825 102.094 39.3693 101.32 41.068 100.624C41.8402 100.314 42.6123 100.005 43.3845 99.7336C46.7433 98.5726 49.9864 98.3791 53.2294 98.9596C56.0092 99.4627 58.4415 100.237 60.6421 101.166C64.6187 102.868 67.8232 104.958 70.1782 107.474C72.1472 109.525 73.4599 111.77 73.7687 114.247C73.9618 115.833 73.7301 117.42 72.8036 119.046C72.4947 119.587 72.0314 120.091 71.4909 120.516C70.5643 121.252 69.2903 121.832 67.6687 122.258C66.8966 122.451 66.1244 122.606 65.3137 122.722C63.4219 122.993 61.5301 123.071 59.6769 123.032C53.2294 122.838 47.7471 121.677 43.6547 119.549C41.956 118.659 40.6433 117.885 39.4465 117.033C37.2845 115.485 35.5471 113.744 34.5047 111.808C33.6553 110.183 33.3079 108.48 33.8484 106.661C34.2344 105.384 35.0838 104.223 36.4351 103.139Z" fill="black"/>
<path d="M33.8484 110.183L33.694 109.216C33.8098 110.067 34.1187 110.919 34.5433 111.731C35.5857 113.705 37.2845 115.408 39.4851 116.956C40.682 117.808 42.0332 118.582 43.6934 119.472C47.7858 121.6 53.2681 122.761 59.7156 122.955C61.5688 122.994 63.4605 122.916 65.3523 122.645C66.1631 122.529 66.9352 122.374 67.7074 122.181C69.3289 121.755 70.603 121.175 71.5295 120.439C72.1087 120.014 72.5333 119.51 72.8422 118.969C73.7688 117.343 74.0004 115.756 73.8074 114.17C73.8074 114.131 73.8074 114.092 73.8074 114.054L73.9618 115.021C73.9618 115.06 73.9618 115.098 73.9618 115.137C74.1549 116.724 73.9232 118.311 72.9966 119.936C72.6878 120.478 72.2245 120.981 71.684 121.407C70.7574 122.142 69.4833 122.723 67.8618 123.148C67.0897 123.342 66.3175 123.497 65.5067 123.613C63.615 123.884 61.7232 123.961 59.87 123.922C53.4225 123.729 47.9402 122.568 43.8478 120.439C42.1491 119.549 40.8364 118.775 39.6396 117.924C37.4775 116.376 35.7402 114.634 34.6978 112.699C34.2731 111.886 33.9642 111.073 33.8484 110.183Z" fill="black"/>
<path d="M85.3125 110.531L85.1581 109.563C85.4669 111.692 86.4707 113.705 88.1695 115.562C89.1733 116.646 90.4859 117.613 91.9144 118.504C92.6866 119.007 93.536 119.471 94.4239 119.935L94.5784 120.903C93.6904 120.439 92.8796 119.974 92.0689 119.471C90.6404 118.581 89.3277 117.613 88.3239 116.53C86.6252 114.633 85.6214 112.66 85.3125 110.531Z" fill="black"/>
<path d="M118.515 109.642L118.669 110.609C118.708 110.957 118.747 111.306 118.785 111.654C118.862 113.009 118.554 114.402 117.781 115.756C117.241 116.685 116.469 117.575 115.426 118.427C114.924 118.814 114.345 119.201 113.689 119.588C111.952 120.555 109.983 121.329 107.898 121.987C104.732 122.955 101.721 123.11 98.825 122.413C97.2421 122.026 95.9295 121.484 94.6554 120.904L94.501 119.936C95.775 120.517 97.0877 121.059 98.6706 121.446C101.566 122.142 104.578 121.987 107.743 121.02C109.867 120.362 111.797 119.588 113.535 118.62C114.191 118.272 114.77 117.885 115.272 117.459C116.314 116.647 117.086 115.756 117.627 114.789C118.438 113.396 118.708 112.041 118.631 110.687C118.592 110.338 118.554 109.99 118.515 109.642Z" fill="black"/>
<path d="M88.9802 100.043C91.1423 98.34 94.1923 97.4111 97.86 97.295C99.2499 97.2563 100.601 97.3337 101.914 97.4885C104.578 97.8368 106.933 98.4561 109.095 99.3075C111.45 100.236 113.496 101.32 114.886 102.713C117.241 105.113 118.438 107.744 118.631 110.647C118.708 112.002 118.399 113.395 117.627 114.749C117.087 115.678 116.314 116.568 115.272 117.42C114.77 117.807 114.191 118.194 113.535 118.581C111.797 119.548 109.828 120.322 107.744 120.98C104.578 121.948 101.566 122.103 98.6708 121.406C97.0878 121.019 95.7752 120.477 94.5011 119.897C93.6132 119.432 92.8024 118.968 91.9916 118.465C90.5631 117.575 89.2505 116.607 88.2467 115.523C85.5827 112.621 84.6175 109.37 85.3511 105.771C85.6986 104.145 86.4321 102.52 87.9378 100.972C88.2081 100.662 88.5941 100.352 88.9802 100.043Z" fill="black"/>
<path d="M2.61471 124.657C2.76914 124.541 2.92357 124.425 3.11661 124.309C4.62231 123.225 6.39826 122.335 8.40587 121.522C10.7223 120.594 13.1932 119.897 15.8185 119.394C19.6021 118.697 23.1154 118.775 26.4357 119.433C28.7521 119.897 30.8756 120.477 32.9604 121.135C35.8946 122.064 38.6743 123.07 41.2224 124.309C43.3072 125.315 45.0446 126.36 46.5503 127.599C47.9016 128.721 48.944 129.921 49.4073 131.314C49.9092 132.901 49.5231 134.487 48.0946 136.074C47.8244 136.384 47.4769 136.693 47.0908 137.003C46.5889 137.39 46.0484 137.738 45.3535 138.048C43.8091 138.783 42.0718 139.248 40.2572 139.557C37.5933 140.022 34.968 140.177 32.3427 140.177C26.7831 140.177 21.5711 139.635 16.5907 138.706C14.004 138.203 11.5331 137.584 9.37106 136.693C7.13181 135.765 5.12421 134.72 3.46408 133.481C2.22863 132.552 1.18622 131.585 0.529893 130.462C-0.666946 128.45 0.221029 126.554 2.61471 124.657Z" fill="black"/>
<path d="M0.182386 130.114L0.0279541 129.146C0.10517 129.572 0.259602 130.037 0.529856 130.462C1.18619 131.585 2.22859 132.552 3.46404 133.481C5.12417 134.719 7.13177 135.764 9.37102 136.693C11.5331 137.583 13.9653 138.203 16.5907 138.706C21.5711 139.635 26.7831 140.215 32.3426 140.176C34.9679 140.176 37.5933 140.022 40.2572 139.557C42.0718 139.248 43.8091 138.783 45.3534 138.048C46.0098 137.738 46.5889 137.39 47.0908 137.003C47.4768 136.732 47.7857 136.422 48.0946 136.074C49.33 134.719 49.7933 133.365 49.6003 132.01L49.7547 132.978C49.9477 134.332 49.4844 135.687 48.249 137.042C47.9787 137.351 47.6313 137.661 47.2452 137.97C46.7433 138.357 46.2028 138.706 45.5079 139.015C43.9635 139.751 42.2262 140.215 40.4116 140.525C37.7477 140.989 35.1224 141.144 32.4971 141.144C26.9375 141.144 21.7255 140.602 16.7451 139.673C14.1584 139.17 11.6875 138.551 9.52545 137.661C7.28621 136.732 5.27861 135.687 3.61847 134.449C2.38303 133.52 1.34062 132.552 0.684284 131.43C0.375422 130.965 0.220993 130.54 0.182386 130.114Z" fill="black"/>
<path d="M11.7648 157.051L11.6104 156.083C11.7262 156.857 12.0736 157.554 12.5755 158.25C13.4635 159.489 14.7762 160.534 16.3205 161.501C16.668 161.695 17.0154 161.927 17.3629 162.12C20.0654 163.668 23.4629 164.597 27.3623 165.1C32.7674 165.797 38.4427 165.758 44.3111 164.791C46.8978 164.365 49.4073 163.746 51.6852 162.778C53.1137 162.159 54.3105 161.501 55.2757 160.727C55.9706 160.185 56.5497 159.605 57.013 159.024C57.7466 158.057 58.0168 157.089 57.901 156.199L58.0554 157.167C58.1713 158.095 57.9396 159.024 57.1675 159.992C56.7042 160.611 56.1251 161.192 55.4301 161.695C54.4263 162.469 53.2295 163.165 51.8396 163.746C49.5617 164.713 47.0522 165.333 44.4655 165.758C38.5972 166.726 32.9604 166.765 27.5167 166.068C23.6174 165.565 20.2199 164.597 17.5173 163.088C17.1699 162.894 16.8224 162.701 16.4749 162.469C14.9306 161.501 13.618 160.456 12.73 159.218C12.2281 158.56 11.8806 157.825 11.7648 157.051Z" fill="black"/>
<path d="M13.5406 152.135C14.0811 151.71 14.7375 151.323 15.471 150.936C17.6717 149.852 20.2198 149.117 22.9223 148.652C27.7097 147.878 32.497 147.491 37.2072 147.53C40.2572 147.53 43.1528 147.762 45.8939 148.343C48.1718 148.807 50.0635 149.62 51.8395 150.471C52.6502 150.858 53.3838 151.245 54.0787 151.71C55.4686 152.6 56.6655 153.567 57.3604 154.728C58.1712 156.083 58.2098 157.515 57.0515 159.024C56.5882 159.644 56.0091 160.224 55.3142 160.727C54.3104 161.501 53.1135 162.198 51.7237 162.778C49.4458 163.746 46.9363 164.365 44.3496 164.791C38.4812 165.758 32.8445 165.797 27.4008 165.1C23.5014 164.597 20.1039 163.63 17.4014 162.12C17.0539 161.927 16.7065 161.733 16.359 161.501C14.8147 160.534 13.502 159.489 12.614 158.25C11.9191 157.283 11.4944 156.277 11.6488 155.154C11.7261 154.071 12.3824 153.064 13.5406 152.135Z" fill="black"/>
<path d="M66.8966 135.57C67.7846 134.874 68.7884 134.177 69.7922 133.558C73.1125 131.584 76.7416 129.92 80.7568 128.565C84.8106 127.211 88.9416 126.553 93.2271 126.708C94.3853 126.746 95.5435 126.785 96.7018 126.824C101.875 127.095 107.126 127.133 112.454 126.979C116.121 126.863 119.712 126.94 123.264 127.172C127.588 127.443 131.603 128.101 135.541 128.875C137.742 129.301 139.904 129.843 141.757 130.578C143.88 131.468 144.923 132.668 144.807 134.293C144.768 134.951 144.614 135.609 144.46 136.267C144.344 136.809 143.958 137.351 143.417 137.854C143.263 138.009 143.07 138.163 142.877 138.318C142.568 138.55 142.259 138.783 141.911 138.976C140.444 139.905 138.746 140.718 137.008 141.492C133.379 143.078 129.441 144.433 125.658 145.904C123.148 146.871 120.446 147.645 117.82 148.535C114.461 149.658 111.334 150.974 108.632 152.599C107.551 153.257 106.585 153.915 105.697 154.612C104.192 155.773 102.956 157.011 101.875 158.288C100.601 159.798 99.3271 161.307 97.7442 162.778C96.8948 163.552 96.0068 164.326 95.0416 165.1C93.3815 166.377 91.5283 167.615 89.3663 168.699C88.015 169.395 86.5479 169.976 84.965 170.44C82.61 171.098 80.4093 171.176 78.3631 170.634C77.6682 170.44 77.0118 170.208 76.3941 169.937C74.5409 169.125 73.1125 168.08 71.8384 166.957C69.6378 165.022 68.0548 162.894 66.8194 160.649C64.7346 156.856 63.615 152.87 63.0358 148.806C62.6884 146.213 62.5339 143.582 62.8814 140.872C62.9972 139.944 63.4605 139.054 64.1555 138.125C64.9276 137.235 65.8542 136.383 66.8966 135.57Z" fill="black"/>
<path d="M63.2675 150.161L63.113 149.193C63.6922 153.141 64.8118 157.011 66.858 160.687C68.0934 162.932 69.6764 165.061 71.877 166.996C73.1511 168.118 74.5795 169.163 76.4327 169.976C77.0504 170.247 77.7068 170.479 78.4017 170.672C80.4479 171.214 82.6486 171.137 85.0036 170.479C86.6251 170.014 88.0536 169.434 89.4049 168.737C91.5669 167.654 93.4201 166.415 95.0802 165.138C96.0454 164.403 96.9334 163.629 97.7828 162.816C99.3657 161.345 100.64 159.836 101.914 158.327C102.995 157.049 104.269 155.811 105.736 154.65C106.624 153.953 107.589 153.295 108.67 152.638C111.373 151.012 114.5 149.696 117.859 148.574C120.446 147.684 123.187 146.948 125.696 145.942C129.48 144.472 133.418 143.156 137.047 141.53C138.784 140.756 140.483 139.943 141.95 139.015C142.297 138.782 142.606 138.589 142.915 138.357C143.108 138.202 143.301 138.047 143.456 137.892C143.996 137.389 144.382 136.886 144.498 136.306C144.653 135.648 144.807 134.99 144.846 134.332C144.846 134.1 144.846 133.867 144.807 133.674L144.961 134.641C145 134.874 145 135.067 145 135.299C144.961 135.957 144.807 136.615 144.653 137.273C144.537 137.815 144.151 138.357 143.61 138.86C143.456 139.015 143.263 139.169 143.07 139.324C142.761 139.556 142.452 139.789 142.104 139.982C140.637 140.911 138.939 141.724 137.201 142.498C133.572 144.085 129.634 145.439 125.851 146.91C123.341 147.877 120.639 148.651 118.013 149.541C114.654 150.664 111.527 151.98 108.825 153.605C107.744 154.263 106.778 154.921 105.89 155.618C104.385 156.779 103.149 158.017 102.068 159.294C100.794 160.804 99.5201 162.313 97.9372 163.784C97.0878 164.558 96.1999 165.332 95.2347 166.106C93.5745 167.383 91.7214 168.621 89.5593 169.705C88.2081 170.402 86.741 170.982 85.1581 171.446C82.803 172.104 80.6023 172.182 78.5561 171.64C77.8612 171.446 77.2049 171.214 76.5871 170.943C74.734 170.131 73.3055 169.086 72.0314 167.963C69.8308 166.028 68.2479 163.9 67.0124 161.655C64.9662 157.978 63.8466 154.108 63.2675 150.161Z" fill="black"/>
<path d="M124.769 43.8101C124.769 52.9823 123.071 61.0709 118.283 69.0821L81.0269 131.314L44.2338 67.4567C39.8711 60.6452 37.323 52.5179 37.323 43.8101C37.323 19.6217 56.8971 5.71523e-05 81.0269 5.71523e-05C105.195 -0.0386443 124.769 19.583 124.769 43.8101Z" fill="#EE5B32"/>
<path d="M122.028 44.2353C122.028 53.2141 120.446 61.1479 115.967 69.0043L81.1043 129.92L46.7434 67.4175C42.651 60.7221 40.2959 52.7884 40.2959 44.2353C40.2959 20.55 58.596 1.31543 81.1815 1.31543C103.728 1.31543 122.028 20.55 122.028 44.2353Z" fill="#D8401D"/>
<path d="M81.0657 65.9471C94.8826 65.9471 106.083 54.7191 106.083 40.8686C106.083 27.0181 94.8826 15.79 81.0657 15.79C67.2487 15.79 56.0479 27.0181 56.0479 40.8686C56.0479 54.7191 67.2487 65.9471 81.0657 65.9471Z" fill="#F2F2F2"/>
</svg>
