<svg width="179" height="172" viewBox="0 0 179 172" fill="none" xmlns="http://www.w3.org/2000/svg">
<path d="M91.1222 170.311L0.866266 56.3271C-0.582882 54.474 -0.174148 51.8517 1.79521 50.4531L62.325 8.00654C64.2943 6.64293 67.0812 7.02754 68.5675 8.88064L158.823 122.864C160.273 124.717 159.864 127.34 157.894 128.738L97.3647 171.185C95.3953 172.548 92.6085 172.164 91.1222 170.311Z" fill="#EE5B32"/>
<path d="M83.3933 156.71L9.00376 62.7608C8.29777 61.8866 8.48355 60.6279 9.44965 59.9636L69.8308 17.6219C70.7598 16.9576 72.0974 17.1324 72.8034 18.0415L147.193 111.99C147.899 112.865 147.713 114.123 146.747 114.788L86.366 157.094C85.3999 157.759 84.0993 157.584 83.3933 156.71Z" fill="white"/>
<path d="M179 22.0624C179 29.9993 173.389 36.9572 164.992 40.8382C153.213 48.1458 121.74 49.9639 113.863 50.3136C113.454 50.3485 113.231 49.929 113.454 49.6143C120.365 39.9991 120.365 22.0275 120.365 22.0275C120.365 9.85992 133.519 0 149.72 0C165.846 0.0349643 179 9.89488 179 22.0624Z" fill="#E6E6E6"/>
<path d="M145.669 37.8313C145.669 36.153 147.156 34.6496 149.014 34.6496C150.872 34.6496 152.358 36.153 152.358 37.8313C152.358 39.5096 150.872 40.9781 149.014 40.9781C147.156 40.9781 145.669 39.5446 145.669 37.8313ZM151.912 9.26552C151.912 11.1186 151.317 15.8388 150.649 22.7967L149.943 29.7196H148.048L147.342 22.7967C146.636 15.8388 146.078 11.0837 146.078 9.26552C146.078 7.13271 147.193 6.22363 148.976 6.22363C150.797 6.22363 151.912 7.13271 151.912 9.26552Z" fill="#42BB6D"/>
<path d="M46.8302 28.6356L27.2109 42.3766C26.7279 42.7262 26.0219 42.6213 25.6875 42.1668C25.3159 41.7123 25.4274 41.0479 25.9104 40.7333L45.5297 26.9923C46.0127 26.6427 46.7187 26.7475 47.0531 27.2021C47.3875 27.6217 47.3132 28.286 46.8302 28.6356Z" fill="#E6E6E6"/>
<path d="M122.409 149.962C126.287 149.962 129.432 147.003 129.432 143.353C129.432 139.704 126.287 136.745 122.409 136.745C118.53 136.745 115.386 139.704 115.386 143.353C115.386 147.003 118.53 149.962 122.409 149.962Z" fill="#E6E6E6"/>
<path d="M77.634 90.2776C74.2155 85.8371 69.2364 80.5225 64.5916 78.075C61.136 76.2569 58.6836 76.2219 56.417 78.145C47.6106 85.6623 59.7612 99.6829 64.443 106.606C64.5917 106.851 64.4802 106.606 64.5173 106.781C66.0036 105.837 67.8615 105.067 68.456 103.389C68.5304 103.179 68.3446 103.179 68.2331 103.005C68.1216 102.795 67.267 101.956 67.1927 101.851C66.3009 100.697 65.7435 99.8228 65.0747 98.669C65.0004 98.5291 64.7403 98.2144 64.7031 98.0396C64.666 97.8648 64.7403 97.9697 64.8146 97.7949C66.561 96.711 69.7194 94.5782 71.0199 93.6341C72.3204 92.6901 71.2057 93.5292 72.0232 92.9698C74.4384 95.4173 76.8908 97.8648 79.3432 100.277C80.7181 99.2284 82.13 98.1795 83.5049 97.1306C81.6842 95.0327 79.8263 92.8649 78.0056 90.802C77.8569 90.5223 77.7083 90.4174 77.634 90.2776ZM62.6595 93.2845C61.0245 90.6971 57.0115 86.7811 59.0923 83.8092C60.3557 81.991 61.6562 83.3197 63.5141 84.5085C63.5884 84.5434 67.4899 88.1447 68.0101 88.7042C66.4867 90.5223 64.5173 91.851 62.6595 93.2845Z" fill="#FD5F2D"/>
<path d="M101.118 73.4255C98.1449 72.5513 95.7297 73.8101 96.1384 76.9568C96.2499 77.8659 97.5504 78.74 97.3646 79.719C97.1417 80.8029 95.8783 80.2784 95.2095 79.8589C93.5002 76.1177 91.3451 72.866 88.744 69.5444C87.1834 67.7263 84.4337 64.8942 82.9103 63.4956C81.3868 62.132 81.0152 60.9782 79.2688 61.6425C78.0055 62.132 76.9279 63.5655 77.188 64.9641C80.8666 69.0549 86.1802 75.2086 88.5211 79.3694C89.5987 81.2574 90.0446 82.1316 90.1189 82.7959C90.3047 83.4252 90.156 84.0196 89.8959 84.649C89.673 85.1734 89.4129 85.6629 89.0413 86.0825C88.8183 86.5371 88.4096 86.7119 87.9266 86.8168C87.2577 87.0266 86.6632 86.8517 85.9572 86.8517C85.7714 86.8517 85.6228 86.8168 85.4742 86.7468C85.437 86.7468 85.437 86.7468 85.3998 86.7468C77.5967 81.3274 75.2558 76.9219 71.057 69.1948C70.7597 68.6353 70.5368 68.7053 70.3138 68.7752C69.0133 69.2647 68.0101 70.3136 66.8582 70.908C66.0407 71.3626 65.9292 71.6073 65.8921 72.4115C65.8921 72.4115 65.8921 72.4115 65.8921 72.4465C65.8921 72.4465 65.8921 72.4465 65.8921 72.4814C70.2395 79.2995 73.5466 84.2294 79.5661 89.9286C81.5355 91.2922 83.5791 93.1103 86.0687 93.2502C89.3757 93.46 91.791 91.8866 94.0576 89.9286C96.2127 88.1104 96.2127 85.8727 96.3242 83.3903C97.6619 83.2154 98.9995 83.0756 99.9285 82.0267C100.857 80.9777 100.82 79.8239 100.449 78.5652C100.263 77.9358 99.7055 77.4813 99.4826 76.8869C99.2225 76.1177 99.2225 75.9079 100.263 76.0827C102.046 76.3974 103.124 74.0198 101.118 73.4255Z" fill="#FD5F2D"/>
<path d="M109.961 85.4863C109.738 85.7311 109.255 85.7311 108.921 85.4514C108.586 85.1717 108.475 84.7521 108.735 84.4724C108.958 84.2276 109.441 84.2276 109.775 84.5073C110.11 84.7871 110.184 85.2416 109.961 85.4863Z" fill="#FD5F2D"/>
<path d="M110.964 84.4033C110.741 84.6481 110.258 84.6481 109.924 84.3684C109.589 84.0887 109.478 83.6691 109.738 83.3894C109.961 83.1446 110.444 83.1446 110.778 83.4243C111.113 83.7041 111.187 84.1586 110.964 84.4033Z" fill="#FD5F2D"/>
<path d="M109.404 86.6758C109.069 86.6409 108.883 86.4311 108.958 86.2213C109.032 86.0115 109.292 85.8367 109.627 85.8717C109.961 85.9066 110.147 86.1164 110.072 86.3262C109.998 86.536 109.738 86.7108 109.404 86.6758Z" fill="#FD5F2D"/>
<path d="M111.856 84.4037C111.633 84.5086 111.373 84.3687 111.299 84.054C111.224 83.7394 111.336 83.4596 111.559 83.3547C111.782 83.2499 112.042 83.3897 112.116 83.7044C112.227 84.0191 112.079 84.3337 111.856 84.4037Z" fill="#FD5F2D"/>
<path d="M111.967 85.5564C111.893 85.6263 111.819 85.6962 111.744 85.7312C111.67 85.7662 111.633 85.8011 111.559 85.8361C111.484 85.906 111.484 85.941 111.447 86.0109C111.41 86.0808 111.373 86.1508 111.299 86.2207C111.076 86.4305 110.778 86.5004 110.63 86.3606C110.295 86.0808 110.11 85.2417 110.444 84.8571C110.778 84.4725 111.707 84.5774 112.042 84.8571C112.228 85.0319 112.19 85.3116 111.967 85.5564Z" fill="#FD5F2D"/>
<path d="M68.8648 116.815C68.5675 116.99 68.1216 116.815 67.8987 116.431C67.6757 116.046 67.75 115.627 68.0473 115.452C68.3446 115.277 68.7905 115.452 69.0134 115.836C69.2363 116.221 69.162 116.64 68.8648 116.815Z" fill="#FD5F2D"/>
<path d="M70.2024 116.081C69.9052 116.256 69.4593 116.081 69.2363 115.696C69.0134 115.312 69.0877 114.892 69.3849 114.717C69.6822 114.543 70.1281 114.717 70.3511 115.102C70.574 115.487 70.4997 115.941 70.2024 116.081Z" fill="#FD5F2D"/>
<path d="M67.9358 117.76C67.6385 117.62 67.527 117.375 67.6757 117.166C67.8243 116.991 68.1215 116.921 68.456 117.026C68.7532 117.166 68.8275 117.41 68.7161 117.62C68.5674 117.83 68.233 117.9 67.9358 117.76Z" fill="#FD5F2D"/>
<path d="M71.0198 116.361C70.7968 116.361 70.5739 116.186 70.611 115.872C70.6482 115.557 70.8711 115.312 71.0941 115.312C71.3542 115.277 71.5028 115.487 71.5028 115.802C71.5028 116.117 71.2799 116.361 71.0198 116.361Z" fill="#FD5F2D"/>
<path d="M70.7596 117.479C70.6482 117.549 70.5738 117.549 70.4995 117.549C70.4252 117.549 70.388 117.584 70.2766 117.619C70.2023 117.654 70.1651 117.689 70.1279 117.759C70.0908 117.829 70.0165 117.864 69.905 117.934C69.6077 118.074 69.3105 118.039 69.199 117.864C68.9761 117.479 69.0875 116.64 69.5706 116.396C70.0536 116.151 70.8711 116.535 71.094 116.885C71.1684 117.095 71.0569 117.34 70.7596 117.479Z" fill="#FD5F2D"/>
<path d="M71.3544 112.654C71.3544 112.584 71.3916 112.514 71.4287 112.479C71.503 112.409 71.6145 112.409 71.8003 112.479C72.0232 112.549 72.3205 112.829 72.6921 113.248C73.3609 113.983 73.9926 114.472 74.5128 114.682C74.6614 114.752 74.7729 114.822 74.8101 114.857C74.8472 114.892 74.8472 114.962 74.8101 115.032C74.7729 115.102 74.7358 115.136 74.6614 115.136C74.5871 115.136 74.4757 115.102 74.2899 115.032C74.1041 114.962 73.9183 114.857 73.7697 114.717L73.5467 114.577L73.2866 114.787C73.138 114.927 72.9893 115.067 72.8779 115.171L72.7292 115.346L72.915 115.836C73.0637 116.15 73.1008 116.325 73.1008 116.36C73.1008 116.395 73.0637 116.43 73.0265 116.5C72.9893 116.535 72.9522 116.535 72.915 116.57C72.8779 116.57 72.8407 116.57 72.8036 116.5C72.7292 116.43 72.5435 116.046 72.2834 115.381C71.8746 114.437 71.6517 113.948 71.6145 113.808C71.4659 113.248 71.3173 112.864 71.3544 112.654ZM72.6549 113.738C72.2462 113.353 72.0604 113.144 71.9861 113.109C71.9489 113.074 71.9118 113.039 71.9118 113.074C71.9118 113.074 71.9489 113.213 72.0232 113.423C72.3948 114.367 72.5806 114.892 72.6178 114.927C72.6178 114.927 72.6549 114.962 72.6549 114.927C72.6921 114.857 72.8036 114.752 72.9893 114.612C73.1751 114.437 73.2494 114.367 73.2494 114.332C73.2123 114.262 73.0265 114.088 72.6549 113.738Z" fill="#230C0A"/>
<path d="M72.6921 111.676C72.6921 111.606 72.6921 111.571 72.7293 111.536C72.7665 111.501 72.8036 111.501 72.8779 111.501C72.9522 111.501 72.9894 111.536 73.0266 111.571L73.0637 111.606L73.138 111.711L73.1752 111.606C73.2495 111.291 73.3981 111.082 73.5468 110.942C73.5839 110.907 73.6582 110.872 73.7326 110.837C73.9183 110.767 74.1041 110.732 74.3271 110.802C74.55 110.872 74.773 110.942 75.0331 111.116C75.1817 111.221 75.3303 111.326 75.4047 111.431C75.5161 111.536 75.7762 111.851 76.2221 112.375C76.6308 112.83 76.8538 113.144 76.9653 113.249C77.0396 113.354 77.1139 113.459 77.1139 113.494C77.1139 113.529 77.0767 113.564 77.0767 113.599C77.0767 113.599 77.0396 113.634 77.0024 113.634L76.891 113.669L75.8877 112.585C75.3675 112.026 75.0331 111.676 74.8844 111.536C74.7358 111.396 74.5872 111.291 74.4014 111.256C74.1413 111.186 73.9555 111.186 73.7697 111.326C73.6954 111.361 73.6582 111.431 73.6211 111.501C73.5839 111.571 73.5839 111.641 73.5468 111.781C73.5468 111.921 73.5468 112.026 73.5468 112.095C73.5468 112.13 73.7697 112.41 74.1784 112.9L74.6243 113.424C74.6987 113.529 74.8101 113.634 74.9216 113.774C75.0331 113.914 75.1074 113.984 75.1445 114.053C75.2932 114.228 75.4046 114.368 75.479 114.473C75.5533 114.578 75.5904 114.648 75.6276 114.683C75.6648 114.753 75.6647 114.788 75.6647 114.788C75.6647 114.823 75.6276 114.823 75.5904 114.858C75.5161 114.893 75.479 114.928 75.4418 114.893C75.3675 114.858 75.1074 114.613 74.6987 114.123C74.6615 114.053 74.5129 113.914 74.2899 113.669C73.4725 112.725 73.0637 112.27 73.0266 112.235C72.8408 111.921 72.6921 111.711 72.6921 111.676Z" fill="#230C0A"/>
<path d="M75.1075 110.138C75.1446 110.103 75.1446 110.068 75.1446 110.068C75.1818 110.033 75.2189 110.033 75.2932 110.068C75.3676 110.068 75.4419 110.138 75.5162 110.208C75.5162 110.208 75.5905 110.313 75.7391 110.487C75.9621 110.802 76.3337 111.257 76.8539 111.851C77.3741 112.515 77.6342 112.865 77.6342 112.9C77.6342 112.935 77.6342 112.97 77.597 113.005C77.5227 113.075 77.4484 113.075 77.4112 113.04C77.3741 113.04 77.2998 112.935 77.1883 112.795C77.0025 112.585 76.7424 112.271 76.4451 111.886C75.7763 111.082 75.4047 110.627 75.3304 110.522C75.2189 110.382 75.1446 110.313 75.1446 110.278C75.0703 110.208 75.0703 110.173 75.1075 110.138ZM74.6987 109.788C74.6987 109.753 74.7359 109.718 74.773 109.683C74.8102 109.648 74.8845 109.613 74.9588 109.613C74.996 109.613 75.0331 109.648 75.1075 109.683C75.1446 109.718 75.1818 109.753 75.1818 109.823C75.1818 109.893 75.1446 109.928 75.0703 109.998C74.996 110.033 74.9588 110.068 74.9217 110.068C74.8845 110.068 74.8474 110.033 74.773 109.998C74.6987 109.928 74.6987 109.858 74.6987 109.788Z" fill="#230C0A"/>
<path d="M75.4419 109.402C75.4419 109.368 75.479 109.333 75.5162 109.298C75.5905 109.228 75.702 109.228 75.7763 109.333C75.8135 109.368 75.8506 109.402 75.8506 109.402C75.8506 109.402 75.8878 109.333 75.9249 109.228C75.9621 109.053 76.0736 108.913 76.185 108.808C76.3708 108.668 76.5566 108.633 76.8539 108.668C76.9654 108.668 77.0397 108.703 77.0397 108.668C77.0397 108.668 77.0397 108.633 77.0397 108.598C77.0397 108.528 77.0397 108.424 77.0768 108.319C77.114 108.214 77.1511 108.109 77.2255 108.039C77.2255 108.004 77.2626 108.004 77.2998 107.969C77.4484 107.864 77.6342 107.829 77.8571 107.829C78.0801 107.829 78.2659 107.934 78.4888 108.074C78.7118 108.214 79.009 108.458 79.4178 108.843C79.6035 109.018 79.938 109.298 80.421 109.752C80.7183 109.997 80.9041 110.172 80.9412 110.207C80.9784 110.242 80.9784 110.277 80.9784 110.312C80.9784 110.347 80.9412 110.416 80.9041 110.451C80.8669 110.486 80.8297 110.486 80.7926 110.486C80.6811 110.451 80.2352 110.067 79.3806 109.263C79.009 108.913 78.7489 108.668 78.5631 108.563C78.3773 108.423 78.2287 108.354 78.1172 108.284C77.8571 108.179 77.6342 108.179 77.5227 108.284C77.4112 108.389 77.3741 108.528 77.4484 108.738C77.4856 108.843 77.5227 108.913 77.5599 108.983C77.597 109.053 77.7457 109.228 77.9314 109.472C78.2659 109.892 78.4517 110.102 78.526 110.207C78.6003 110.312 78.6374 110.347 78.6374 110.381C78.6374 110.416 78.6375 110.451 78.6003 110.486C78.5631 110.521 78.5631 110.556 78.526 110.556C78.4888 110.591 78.4145 110.556 78.303 110.486C78.1916 110.416 78.0058 110.207 77.7085 109.857C77.3741 109.472 77.1511 109.263 77.0397 109.193C76.9282 109.123 76.8167 109.088 76.6681 109.088C76.5566 109.088 76.4452 109.123 76.3708 109.193C76.2222 109.298 76.1479 109.472 76.185 109.682V109.857L77.2626 111.046C77.6714 111.5 77.8943 111.745 77.9686 111.815C78.2287 112.13 78.3773 112.27 78.3773 112.339C78.3773 112.409 78.3773 112.444 78.303 112.514C78.2287 112.549 78.1916 112.584 78.1544 112.549C78.0801 112.514 77.6342 112.025 76.7796 111.011C75.8878 109.997 75.4419 109.437 75.4419 109.402Z" fill="#230C0A"/>
<path d="M79.046 106.64C79.0831 106.57 79.1946 106.5 79.3804 106.36C79.6405 106.185 79.7891 106.046 79.9006 106.011C80.1235 105.906 80.3093 105.941 80.5323 106.046C80.6066 106.115 80.941 106.43 81.5355 107.025C82.1301 107.619 82.576 108.108 82.8732 108.458C83.0218 108.633 83.0962 108.738 83.1333 108.808C83.1705 108.878 83.1333 108.913 83.059 108.948C82.9475 109.018 82.8732 108.983 82.7617 108.843C82.6874 108.773 82.6503 108.738 82.6503 108.738C82.6503 108.738 82.6503 108.738 82.6131 108.773C82.4645 109.018 82.2787 109.262 82.0557 109.472C82.0186 109.507 81.9814 109.542 81.9443 109.577C81.6099 109.822 81.3497 109.857 81.0896 109.682C81.0525 109.647 81.0153 109.612 80.9782 109.577C80.9039 109.507 80.8667 109.402 80.8295 109.262C80.7924 109.157 80.7924 109.052 80.8295 108.948C80.8667 108.808 80.941 108.668 81.0153 108.598C81.0896 108.528 81.2383 108.388 81.4241 108.213L81.8328 107.899L81.3126 107.269C81.2383 107.164 81.1268 107.06 81.0153 106.92C80.7924 106.675 80.6066 106.5 80.4951 106.43C80.3836 106.36 80.235 106.325 80.0864 106.36C79.9749 106.36 79.8263 106.465 79.5662 106.64C79.3432 106.815 79.1946 106.92 79.1575 106.92C79.1203 106.92 79.0831 106.885 79.046 106.85C78.9717 106.815 78.9717 106.71 79.046 106.64ZM82.0557 108.213C81.9443 108.283 81.7956 108.353 81.647 108.458C81.4984 108.598 81.3869 108.703 81.3126 108.773C81.2383 108.878 81.2011 108.983 81.2011 109.052C81.2011 109.157 81.2011 109.227 81.2383 109.262C81.2754 109.332 81.3497 109.332 81.4612 109.332C81.5355 109.332 81.647 109.297 81.7213 109.227C81.87 109.122 82.0186 108.913 82.2044 108.598L82.3158 108.388L82.2044 108.248C82.1672 108.213 82.1301 108.178 82.0929 108.143C82.1301 108.213 82.0929 108.213 82.0557 108.213Z" fill="#230C0A"/>
<path d="M81.127 105.487C81.1642 105.452 81.1642 105.417 81.1642 105.417C81.2013 105.382 81.2385 105.382 81.3128 105.417C81.3871 105.417 81.4614 105.487 81.5357 105.556C81.5357 105.556 81.6101 105.661 81.7587 105.836C81.9816 106.151 82.3532 106.605 82.8734 107.2C83.3936 107.864 83.6537 108.214 83.6537 108.249C83.6537 108.284 83.6537 108.319 83.6166 108.354C83.5422 108.424 83.4679 108.424 83.4308 108.389C83.3936 108.389 83.3193 108.284 83.2078 108.144C83.022 107.934 82.7619 107.619 82.4647 107.235C81.7958 106.431 81.4243 105.976 81.3499 105.871C81.2385 105.731 81.1642 105.661 81.1642 105.626C81.0898 105.591 81.0898 105.522 81.127 105.487ZM80.7183 105.172C80.7183 105.137 80.7554 105.102 80.7926 105.067C80.8297 105.032 80.9041 104.997 80.9784 104.997C81.0155 104.997 81.0527 105.032 81.127 105.067C81.1642 105.102 81.2013 105.137 81.2013 105.207C81.2013 105.277 81.1642 105.312 81.0898 105.382C81.0155 105.417 80.9784 105.452 80.9412 105.452C80.9041 105.452 80.8669 105.417 80.7926 105.382C80.7183 105.277 80.7183 105.207 80.7183 105.172Z" fill="#230C0A"/>
<path d="M81.9444 104.298C81.9815 104.228 82.0187 104.193 82.0558 104.158C82.2045 104.053 82.3531 104.018 82.5389 104.053C82.7247 104.088 82.9105 104.158 83.0591 104.298C83.0963 104.298 83.0963 104.333 83.1334 104.368C83.2077 104.473 83.2077 104.543 83.1334 104.613C83.0963 104.648 83.0591 104.648 82.9848 104.648C82.9476 104.648 82.8733 104.578 82.7618 104.508C82.5389 104.333 82.3903 104.298 82.316 104.368C82.2045 104.438 82.2045 104.613 82.2416 104.857C82.2788 104.962 82.3159 105.032 82.3531 105.102C82.3903 105.172 82.5017 105.277 82.6504 105.452C82.9476 105.801 83.2077 106.011 83.3935 106.116C83.5793 106.221 83.8394 106.221 84.1367 106.186C84.3225 106.151 84.4339 106.116 84.5083 106.151C84.5826 106.151 84.6569 106.186 84.7683 106.221C84.8798 106.291 84.9913 106.361 85.0656 106.431C85.1771 106.536 85.2514 106.675 85.2886 106.85C85.3257 106.99 85.3257 107.13 85.2514 107.27C85.1771 107.41 85.1028 107.515 84.9913 107.62C84.8055 107.759 84.5826 107.829 84.3225 107.794C84.1367 107.759 83.988 107.654 83.8766 107.515C83.8394 107.48 83.8394 107.445 83.8394 107.41C83.8394 107.375 83.8766 107.305 83.9137 107.305C83.9509 107.27 84.0252 107.27 84.0624 107.27C84.1367 107.27 84.1738 107.305 84.211 107.34C84.2481 107.375 84.3225 107.41 84.3968 107.445C84.4711 107.48 84.5826 107.445 84.6569 107.375C84.7684 107.305 84.8055 107.2 84.8427 107.06C84.8798 106.92 84.8427 106.815 84.7683 106.71C84.694 106.641 84.6197 106.606 84.4711 106.571C84.3596 106.536 84.211 106.571 84.0624 106.606C83.8023 106.675 83.5793 106.641 83.3564 106.536C83.0591 106.396 82.7618 106.116 82.4274 105.731C82.3159 105.592 82.2045 105.452 82.1302 105.347C82.0187 105.172 81.9815 104.997 81.9444 104.787C81.8329 104.578 81.8701 104.438 81.9444 104.298Z" fill="#230C0A"/>
<path d="M85.6602 101.466C85.6602 101.431 85.6973 101.396 85.7345 101.396C85.7716 101.361 85.8088 101.361 85.8831 101.361C85.9946 101.361 86.3662 101.711 86.9607 102.41C87.4066 102.9 87.6667 103.284 87.8525 103.564C88.2984 104.333 88.3355 104.858 87.9639 105.137C87.7038 105.347 87.4437 105.382 87.1465 105.312C86.8492 105.242 86.5148 104.998 86.1432 104.648C86.1061 104.613 86.0317 104.508 85.8831 104.368C85.0285 103.389 84.5826 102.83 84.4711 102.655C84.434 102.585 84.4711 102.515 84.5454 102.48C84.5826 102.445 84.6197 102.445 84.6569 102.445C84.6941 102.445 84.7312 102.445 84.7312 102.48C84.7684 102.515 84.8427 102.585 84.917 102.69C85.0285 102.83 85.2514 103.11 85.623 103.494C85.9574 103.879 86.1432 104.089 86.2175 104.193C86.4405 104.438 86.5891 104.613 86.7377 104.718C86.8492 104.823 86.9607 104.893 87.1093 104.928C87.3694 105.033 87.5552 105.033 87.7038 104.893C87.8153 104.788 87.8896 104.648 87.8896 104.438C87.8896 104.333 87.8525 104.193 87.8153 104.089C87.7781 103.984 87.6295 103.809 87.4809 103.529C87.2951 103.284 87.1093 103.04 86.9235 102.83C86.8492 102.76 86.7006 102.585 86.4776 102.34C86.2175 102.061 86.0689 101.886 86.0317 101.851C85.6973 101.606 85.623 101.501 85.6602 101.466Z" fill="#230C0A"/>
<path d="M86.4404 101.081C86.4404 101.011 86.4404 100.976 86.4776 100.941C86.5147 100.906 86.5519 100.906 86.6262 100.906C86.7005 100.906 86.7377 100.941 86.7749 100.976L86.812 101.011L86.8863 101.116L86.9235 101.011C86.9978 100.697 87.1464 100.487 87.2951 100.347C87.3322 100.312 87.4065 100.277 87.4809 100.242C87.6666 100.172 87.8524 100.137 88.0754 100.207C88.2983 100.277 88.5213 100.347 88.7814 100.522C88.93 100.627 89.0786 100.732 89.1529 100.836C89.2644 100.941 89.5245 101.256 89.9704 101.78C90.3791 102.235 90.6021 102.55 90.7136 102.655C90.7879 102.759 90.8622 102.864 90.8622 102.899C90.8622 102.934 90.825 102.969 90.825 103.004C90.825 103.004 90.7879 103.039 90.7507 103.039L90.6392 103.074L89.636 101.99C89.1158 101.431 88.7814 101.081 88.6327 100.941C88.4841 100.801 88.3355 100.697 88.1497 100.662C87.8896 100.592 87.7038 100.592 87.518 100.732C87.4437 100.766 87.4065 100.836 87.3694 100.906C87.3322 100.976 87.3322 101.046 87.2951 101.186C87.2951 101.326 87.2951 101.431 87.2951 101.501C87.2951 101.536 87.518 101.815 87.9267 102.305L88.3726 102.829C88.4469 102.934 88.5584 103.039 88.6699 103.179C88.7814 103.319 88.8557 103.389 88.8928 103.459C89.0415 103.634 89.1529 103.773 89.2273 103.878C89.3016 103.983 89.3387 104.053 89.3759 104.088C89.413 104.158 89.413 104.193 89.413 104.193C89.413 104.228 89.3759 104.228 89.3387 104.263C89.2644 104.298 89.2273 104.333 89.1901 104.298C89.1158 104.263 88.8557 104.018 88.447 103.529C88.4098 103.459 88.2612 103.319 88.0382 103.074C87.2207 102.13 86.812 101.676 86.7749 101.641C86.5891 101.326 86.4404 101.151 86.4404 101.081Z" fill="#230C0A"/>
<path d="M88.8557 99.5432C88.8929 99.5082 88.8929 99.4733 88.8929 99.4733C88.93 99.4383 88.9672 99.4383 89.0415 99.4733C89.1158 99.4733 89.1901 99.5432 89.2644 99.6131C89.2644 99.6131 89.3388 99.718 89.4874 99.8929C89.7103 100.208 90.0819 100.662 90.6021 101.256C91.1223 101.921 91.3824 102.27 91.3824 102.305C91.3824 102.34 91.3824 102.375 91.3453 102.41C91.271 102.48 91.1966 102.48 91.1595 102.445C91.1223 102.445 91.048 102.34 90.9365 102.2C90.7508 101.991 90.4907 101.676 90.1934 101.291C89.5246 100.487 89.153 100.033 89.0787 99.9278C88.9672 99.788 88.8929 99.718 88.8929 99.6831C88.8186 99.6481 88.8186 99.5782 88.8557 99.5432ZM88.4841 99.2285C88.4841 99.1936 88.5213 99.1586 88.5585 99.1236C88.5956 99.0887 88.6699 99.0537 88.7442 99.0537C88.7814 99.0537 88.8186 99.0887 88.8929 99.1236C88.93 99.1586 88.9672 99.1936 88.9672 99.2635C88.9672 99.3334 88.93 99.3684 88.8557 99.4383C88.7814 99.4733 88.7442 99.5082 88.7071 99.5082C88.6699 99.5082 88.6328 99.4733 88.5585 99.4383C88.447 99.3334 88.447 99.2635 88.4841 99.2285Z" fill="#230C0A"/>
<path d="M89.1902 98.8085C89.1902 98.7736 89.2273 98.7386 89.2645 98.7036C89.3388 98.6687 89.376 98.6337 89.4503 98.6687C89.5618 98.7386 89.8219 98.9134 90.2678 99.2281C91.271 99.9624 91.9027 100.417 92.1628 100.592L92.4972 100.802L92.3857 100.487C92.2743 100.242 92.1256 99.9274 91.9398 99.5428C91.7541 99.1582 91.5683 98.7386 91.3453 98.2841C91.1224 97.8295 91.0481 97.5498 91.0481 97.5149C91.0481 97.4799 91.0852 97.4449 91.1224 97.41C91.1595 97.375 91.1967 97.375 91.271 97.375C91.3082 97.375 91.3453 97.41 91.3825 97.4449C91.4568 97.5149 91.5683 97.7946 91.7912 98.2491C91.8655 98.4239 91.977 98.6687 92.1628 99.0533C92.3486 99.4029 92.4972 99.7526 92.6087 99.9973C92.7202 100.277 92.8316 100.522 92.9059 100.732C92.9803 100.941 93.0174 101.081 93.0546 101.151C93.0546 101.186 93.0546 101.256 92.9803 101.291C92.9803 101.291 92.9803 101.291 92.9431 101.326C92.9059 101.361 92.8316 101.361 92.7573 101.326C92.2743 101.186 91.4568 100.627 90.2306 99.6826C89.7104 99.298 89.4131 99.0533 89.3388 98.9484C89.2273 98.9134 89.1902 98.8435 89.1902 98.8085Z" fill="#230C0A"/>
<path d="M92.0141 96.6765C92.0512 96.6416 92.0884 96.6066 92.1255 96.5716C92.2742 96.4318 92.5343 96.4318 92.9059 96.5367C93.3517 96.6765 93.7605 96.9912 94.2064 97.4807C94.2064 97.4807 94.2435 97.5157 94.2807 97.5506C94.3178 97.5856 94.3178 97.6206 94.355 97.6206C94.5779 97.9003 94.6894 98.1101 94.6523 98.2499C94.6523 98.3898 94.5036 98.5646 94.2064 98.7744L94.1692 98.8094L93.8348 99.0541L93.9463 99.194C94.1321 99.4038 94.3178 99.4737 94.5036 99.4387C94.5779 99.4387 94.6523 99.4038 94.6894 99.3688C94.7266 99.3338 94.7637 99.2989 94.838 99.194C94.9495 99.0541 95.0238 98.9492 95.0238 98.8793C95.0238 98.8094 95.061 98.7394 95.1353 98.7045C95.2096 98.6695 95.2468 98.6345 95.3211 98.6695C95.3583 98.6695 95.3583 98.7045 95.3583 98.7045C95.4326 98.7744 95.4326 98.9142 95.3954 99.0891C95.3954 99.159 95.3583 99.2289 95.3211 99.2639C95.2839 99.2989 95.2096 99.3688 95.0982 99.4737L95.061 99.5086C95.0238 99.5436 95.0238 99.5436 95.0238 99.5436C94.8009 99.7184 94.5408 99.7884 94.3178 99.7884C94.1692 99.7884 94.0577 99.7534 93.9463 99.6485C93.8348 99.5786 93.649 99.3688 93.3517 99.0191L93.0545 98.6695C92.5343 98.0401 92.1999 97.6555 92.1255 97.5157C91.8654 97.236 91.8283 96.9213 92.0141 96.6765ZM92.5714 96.8514C92.46 96.8514 92.4228 96.8514 92.3856 96.8863C92.3485 96.9213 92.3485 96.9563 92.3485 97.0611C92.3485 97.1311 92.3856 97.236 92.3856 97.3409C92.46 97.5506 92.6829 97.8653 93.0545 98.3199C93.1288 98.4248 93.2031 98.4947 93.2403 98.5296L93.5375 98.8443L93.6862 98.7394C93.7976 98.6695 93.872 98.5646 93.9463 98.4247C94.0206 98.3199 94.0577 98.215 94.0577 98.145C94.0577 98.0401 93.9834 97.9353 93.8719 97.7954L93.7976 97.7255C93.6118 97.5157 93.4632 97.3758 93.3517 97.2709C93.2403 97.166 93.0916 97.0961 92.9059 97.0262C92.7944 96.8863 92.6829 96.8514 92.5714 96.8514Z" fill="#230C0A"/>
<path d="M93.3888 95.3815C93.426 95.3466 93.4631 95.3116 93.5003 95.2766C93.7232 95.1018 93.909 94.9969 94.0948 94.9619C94.3178 94.892 94.5779 94.927 94.8008 94.9969C95.0609 95.0668 95.2839 95.2067 95.5068 95.3815C95.5811 95.4514 95.6554 95.5214 95.7297 95.5913C95.9527 95.836 96.1013 96.1158 96.1385 96.3955C96.2128 96.6752 96.1756 96.9549 96.0642 97.1997L95.9898 97.3046L96.3614 97.2346C96.5844 97.1997 96.733 97.1997 96.9188 97.1997C97.0674 97.1997 97.1789 97.2346 97.216 97.2696C97.2532 97.3046 97.2532 97.3395 97.2532 97.4094C97.2532 97.4794 97.2532 97.5143 97.216 97.5143C97.1789 97.5493 97.0674 97.5493 96.8445 97.5493C96.6587 97.5493 96.3986 97.5843 96.0642 97.6542L95.5811 97.7591L95.7669 98.0038C95.8412 98.0738 95.8784 98.1437 95.9155 98.2136C95.9898 98.2835 96.027 98.3535 96.1013 98.4234C96.1385 98.4584 96.1385 98.4584 96.1756 98.4933C96.2871 98.5982 96.2871 98.7031 96.1756 98.773L96.1385 98.808C96.1013 98.843 96.027 98.843 95.9527 98.808C95.8784 98.773 95.8041 98.6682 95.6926 98.5283C95.6554 98.4933 95.5068 98.2836 95.2467 97.9689C94.8751 97.5143 94.4664 96.9899 93.9833 96.4304C93.5003 95.871 93.2773 95.5563 93.2773 95.5214C93.3145 95.4864 93.3145 95.4514 93.3888 95.3815ZM94.2063 95.3116C94.0948 95.3466 93.9833 95.3815 93.909 95.4514L93.7975 95.5563L94.0948 95.9409C94.2434 96.1507 94.5035 96.4654 94.8751 96.885C95.0981 97.1647 95.2467 97.3045 95.2839 97.3745C95.321 97.4094 95.3953 97.4444 95.4325 97.4094C95.4696 97.4094 95.5068 97.3745 95.5068 97.3745C95.6554 97.2696 95.7669 97.0598 95.8041 96.85C95.8412 96.5004 95.7297 96.1507 95.4696 95.8361C95.2839 95.6263 95.0981 95.4864 94.8751 95.4165C94.615 95.2766 94.3921 95.2417 94.2063 95.3116Z" fill="#230C0A"/>
<path d="M95.6927 93.7383C95.7298 93.6684 95.767 93.6334 95.8041 93.5985C95.9528 93.4936 96.1014 93.4586 96.2872 93.4936C96.473 93.5285 96.6588 93.5985 96.8074 93.7383C96.8445 93.7383 96.8445 93.7733 96.8817 93.8083C96.956 93.9132 96.956 93.9831 96.8817 94.053C96.8445 94.088 96.8074 94.088 96.7331 94.088C96.6959 94.088 96.6216 94.018 96.5101 93.9481C96.2872 93.7733 96.1385 93.7383 96.0642 93.8083C95.9528 93.8782 95.9528 94.053 95.9899 94.2978C96.0271 94.4027 96.0642 94.4726 96.1014 94.5425C96.1385 94.6124 96.25 94.7173 96.3987 94.8921C96.6959 95.2418 96.956 95.4516 97.1418 95.5565C97.3276 95.6614 97.5877 95.6614 97.885 95.6264C98.0707 95.5914 98.1822 95.5565 98.2565 95.5914C98.3308 95.5914 98.4052 95.6264 98.5166 95.6614C98.6281 95.7313 98.7396 95.8012 98.8139 95.8712C98.9254 95.976 98.9997 96.1159 99.0368 96.2907C99.074 96.4306 99.074 96.5704 98.9997 96.7103C98.9254 96.8502 98.8511 96.955 98.7396 97.0599C98.5538 97.1998 98.3308 97.2697 98.0707 97.2348C97.885 97.1998 97.7363 97.0949 97.6248 96.955C97.5877 96.9201 97.5877 96.8851 97.5877 96.8501C97.5877 96.8152 97.6249 96.7453 97.662 96.7453C97.6992 96.7103 97.7735 96.7103 97.8106 96.7103C97.885 96.7103 97.9221 96.7453 97.9593 96.7802C97.9964 96.8152 98.0707 96.8502 98.1451 96.8851C98.2194 96.9201 98.3308 96.8851 98.4052 96.8152C98.5166 96.7453 98.5538 96.6404 98.5909 96.5005C98.6281 96.3607 98.5909 96.2558 98.5166 96.1509C98.4423 96.0809 98.368 96.046 98.2194 96.011C98.1079 95.976 97.9593 96.011 97.8106 96.046C97.5505 96.1159 97.3276 96.0809 97.1046 95.976C96.8074 95.8362 96.5101 95.5565 96.1385 95.1719C96.0271 95.032 95.9156 94.8922 95.8413 94.7873C95.7298 94.6124 95.6927 94.4376 95.6555 94.2278C95.5812 94.018 95.6183 93.8782 95.6927 93.7383Z" fill="#230C0A"/>
<path d="M97.2161 93.1096C97.2533 93.0747 97.2533 93.0397 97.2533 93.0397C97.2904 93.0047 97.3276 93.0047 97.4019 93.0397C97.4762 93.0397 97.5505 93.1096 97.6248 93.1795C97.6248 93.1795 97.6992 93.2844 97.8478 93.4593C98.0707 93.7739 98.4423 94.2285 98.9625 94.8229C99.4827 95.4872 99.7428 95.8368 99.7428 95.8718C99.7428 95.9068 99.7428 95.9417 99.7057 95.9767C99.6313 96.0466 99.557 96.0466 99.5199 96.0117C99.4827 96.0117 99.4084 95.9068 99.2969 95.7669C99.1111 95.5571 98.851 95.2424 98.5538 94.8578C97.8849 94.0537 97.5134 93.5991 97.439 93.4942C97.3276 93.3544 97.2533 93.2844 97.2533 93.2495C97.1789 93.2145 97.1789 93.1796 97.2161 93.1096ZM96.8074 92.7949C96.8074 92.76 96.8445 92.725 96.8817 92.69C96.9188 92.6551 96.9932 92.6201 97.0675 92.6201C97.1046 92.6201 97.1418 92.6551 97.2161 92.69C97.2533 92.725 97.2904 92.76 97.2904 92.8299C97.2904 92.8998 97.2533 92.9348 97.1789 93.0047C97.1046 93.0397 97.0675 93.0747 97.0303 93.0747C96.9932 93.0747 96.956 93.0397 96.8817 93.0047C96.8074 92.9348 96.8074 92.8649 96.8074 92.7949Z" fill="#230C0A"/>
<path d="M98.1079 91.9206C98.1079 91.8856 98.1451 91.8157 98.1822 91.8157C98.2565 91.7457 98.3309 91.7807 98.4795 91.8856C98.4795 91.8856 98.4795 91.8856 98.5166 91.9206L98.5538 91.9555C98.6653 92.0954 98.8511 92.3052 99.0369 92.5849C99.297 92.9345 99.5199 93.2492 99.78 93.5289L100.114 93.9135L100.263 93.7387C100.375 93.6338 100.449 93.5639 100.486 93.5289C100.56 93.459 100.635 93.459 100.672 93.494C100.709 93.494 100.746 93.5289 100.746 93.5639C100.783 93.6338 100.82 93.7037 100.746 93.7387C100.746 93.7737 100.635 93.8436 100.523 93.9835C100.449 94.0534 100.375 94.1233 100.375 94.1583C100.375 94.1933 100.375 94.2282 100.375 94.2282C100.412 94.2632 100.523 94.3331 100.709 94.473C100.895 94.6128 101.043 94.6827 101.081 94.7177C101.118 94.7177 101.118 94.7177 101.118 94.7177C101.118 94.7177 101.155 94.7177 101.155 94.6827C101.155 94.6827 101.155 94.6478 101.155 94.6128C101.155 94.5429 101.192 94.473 101.229 94.473C101.266 94.438 101.303 94.438 101.378 94.438C101.415 94.438 101.452 94.438 101.452 94.473C101.452 94.473 101.489 94.5079 101.489 94.5779C101.526 94.6478 101.526 94.7177 101.489 94.7876C101.452 94.8226 101.415 94.8925 101.341 94.9625C101.043 95.1722 100.709 95.1373 100.337 94.7876C100.337 94.7876 100.263 94.7527 100.189 94.6827C100.114 94.6128 100.077 94.5778 100.04 94.5429L99.9286 94.438L99.7429 94.6128C99.7057 94.6478 99.6685 94.6478 99.6314 94.6827C99.5571 94.7177 99.5199 94.7527 99.4827 94.7527C99.4456 94.7527 99.4084 94.7177 99.3713 94.6827C99.3341 94.6128 99.297 94.5778 99.3341 94.5429C99.3341 94.5079 99.4084 94.438 99.5199 94.3331L99.7057 94.1583L99.1112 93.3891C98.7768 92.9345 98.5166 92.6199 98.3309 92.4101L98.2937 92.3401C98.2566 92.3052 98.2194 92.2352 98.1451 92.2003C98.1079 92.0604 98.0708 91.9905 98.1079 91.9206Z" fill="#230C0A"/>
<path d="M99.6314 90.7324C99.6686 90.6974 99.7429 90.6275 99.8172 90.5575C100.077 90.3478 100.263 90.2429 100.449 90.2079C100.598 90.1729 100.746 90.2079 100.932 90.3128C101.155 90.4876 101.712 91.0121 102.53 91.9561L102.753 92.2009L103.496 93.075L103.422 93.1449L103.384 93.1799C103.273 93.2498 103.199 93.2498 103.124 93.1449C103.087 93.1099 103.087 93.1099 103.05 93.1099C103.05 93.1099 103.013 93.1099 103.013 93.1449C102.976 93.1799 102.864 93.2848 102.678 93.4596L102.641 93.4945C102.604 93.5295 102.604 93.5295 102.604 93.5295C102.307 93.7393 102.047 93.8442 101.787 93.7743C101.638 93.7393 101.526 93.6694 101.415 93.5645C101.341 93.4596 101.266 93.3547 101.266 93.2148C101.266 93.075 101.266 92.9351 101.341 92.7603C101.415 92.6204 101.526 92.4806 101.638 92.4107L101.712 92.3407C101.898 92.2009 102.047 92.1309 102.084 92.096L102.195 92.061L102.01 91.8163C101.861 91.6414 101.638 91.3967 101.341 91.117C101.155 90.9072 101.006 90.7673 100.932 90.6974C100.858 90.6275 100.783 90.5925 100.709 90.5575C100.598 90.5226 100.486 90.4876 100.412 90.5226C100.337 90.5226 100.226 90.5925 100.114 90.6624C100.04 90.7324 99.9659 90.7673 99.9287 90.8023C99.8172 90.9072 99.7429 90.9422 99.7058 90.9771C99.6314 91.047 99.5571 91.082 99.52 91.082C99.4828 91.082 99.4457 91.047 99.4085 91.0121C99.3713 90.9771 99.3713 90.9072 99.3713 90.8373C99.4457 90.9072 99.52 90.8373 99.6314 90.7324ZM102.307 92.5155C102.158 92.5505 102.047 92.6204 101.898 92.7253C101.787 92.8302 101.675 92.9351 101.638 93.04C101.601 93.1449 101.601 93.2848 101.638 93.3897C101.638 93.3897 101.638 93.4246 101.675 93.4246C101.749 93.4945 101.824 93.5295 101.972 93.4945C102.121 93.4596 102.232 93.3896 102.381 93.3197C102.53 93.2148 102.604 93.1099 102.678 92.9701C102.716 92.9001 102.716 92.8652 102.716 92.8302C102.716 92.7953 102.678 92.7603 102.604 92.6554L102.455 92.4806L102.307 92.5155ZM99.4085 89.8583C99.4085 89.5436 99.4457 89.3688 99.52 89.3338C99.5571 89.2988 99.5943 89.2988 99.6314 89.2988C99.6686 89.2988 99.7058 89.3338 99.7429 89.3338C99.7801 89.4037 99.8172 89.5436 99.8172 89.8233C99.8172 90.103 99.7801 90.2778 99.7058 90.3478C99.6686 90.3827 99.6686 90.3827 99.6314 90.3827C99.5571 90.3827 99.52 90.3827 99.4828 90.3478C99.4456 90.3128 99.4085 90.1729 99.4085 89.8583Z" fill="#230C0A"/>
<path d="M101.192 89.3688C101.229 89.3339 101.266 89.2989 101.304 89.2639C101.526 89.0891 101.712 88.9842 101.898 88.9492C102.121 88.8793 102.381 88.9143 102.604 88.9842C102.864 89.0541 103.087 89.194 103.31 89.3688C103.384 89.4388 103.459 89.5087 103.533 89.5786C103.756 89.8234 103.905 90.1031 103.942 90.3828C104.016 90.6625 103.979 90.9422 103.867 91.187L103.793 91.2919L104.165 91.2219C104.388 91.187 104.536 91.187 104.722 91.187C104.871 91.187 104.982 91.2219 105.019 91.2569C105.056 91.2919 105.056 91.3268 105.056 91.3967C105.056 91.4667 105.056 91.5016 105.019 91.5016C104.982 91.5366 104.871 91.5366 104.648 91.5366C104.462 91.5366 104.202 91.5716 103.867 91.6415L103.384 91.7464L103.57 91.9911C103.644 92.0611 103.682 92.131 103.719 92.2009C103.793 92.2709 103.83 92.3408 103.905 92.4107C103.942 92.4457 103.942 92.4457 103.979 92.4806C104.09 92.5855 104.09 92.6904 103.979 92.7604L103.942 92.7953C103.905 92.8303 103.83 92.8303 103.756 92.7953C103.682 92.7604 103.607 92.6555 103.496 92.5156C103.459 92.4806 103.31 92.2709 103.05 91.9562C102.678 91.5016 102.27 90.9772 101.787 90.4178C101.304 89.8583 101.081 89.5436 101.081 89.5087C101.118 89.5087 101.155 89.4388 101.192 89.3688ZM102.01 89.2989C101.898 89.3339 101.787 89.3688 101.712 89.4388L101.601 89.5436L101.898 89.9283C102.047 90.138 102.307 90.4527 102.678 90.8723C102.901 91.152 103.05 91.2919 103.087 91.3618C103.124 91.3968 103.199 91.4317 103.236 91.3967C103.273 91.3967 103.31 91.3618 103.31 91.3618C103.459 91.2569 103.57 91.0471 103.607 90.8373C103.644 90.4877 103.533 90.138 103.273 89.8234C103.087 89.6136 102.901 89.4737 102.678 89.4038C102.418 89.2639 102.232 89.229 102.01 89.2989Z" fill="#230C0A"/>
<path d="M103.384 88.3897C103.421 88.3547 103.421 88.3198 103.421 88.3198C103.459 88.2848 103.496 88.2848 103.57 88.3198C103.644 88.3198 103.719 88.3897 103.793 88.4596C103.793 88.4596 103.867 88.5645 104.016 88.7393C104.239 89.054 104.611 89.5086 105.131 90.1029C105.651 90.7673 105.911 91.1169 105.911 91.1519C105.911 91.1868 105.911 91.2218 105.874 91.2568C105.8 91.3267 105.725 91.3267 105.688 91.2917C105.651 91.2917 105.577 91.1868 105.465 91.047C105.279 90.8372 105.019 90.5225 104.722 90.1379C104.053 89.3337 103.682 88.8792 103.607 88.7743C103.496 88.6344 103.421 88.5645 103.421 88.5296C103.347 88.4596 103.347 88.4247 103.384 88.3897ZM102.976 88.0401C102.976 88.0051 103.013 87.9701 103.05 87.9352C103.087 87.9002 103.161 87.8652 103.236 87.8652C103.273 87.8652 103.31 87.9002 103.384 87.9352C103.421 87.9701 103.459 88.0051 103.459 88.075C103.459 88.1449 103.421 88.1799 103.347 88.2498C103.273 88.2848 103.236 88.3198 103.199 88.3198C103.161 88.3198 103.124 88.2848 103.05 88.2498C102.976 88.1799 102.976 88.11 102.976 88.0401Z" fill="#230C0A"/>
<path d="M104.388 87.235C104.425 87.1651 104.499 87.1301 104.573 87.0602C104.796 86.8854 105.019 86.8154 105.242 86.8154C105.428 86.8154 105.614 86.8853 105.837 87.0252C106.06 87.1651 106.283 87.3749 106.58 87.6895C106.654 87.7595 106.766 87.8644 106.877 88.0042C107.1 88.2839 107.286 88.5636 107.434 88.8783C107.657 89.3678 107.657 89.7524 107.472 90.0671C107.397 90.207 107.323 90.2769 107.212 90.3818C106.951 90.5916 106.617 90.5916 106.283 90.4167C106.171 90.3468 105.948 90.172 105.577 89.8223C105.205 89.4727 104.945 89.158 104.722 88.9482C104.536 88.7385 104.388 88.5287 104.276 88.2839C104.165 88.0741 104.127 87.8644 104.165 87.7595C104.202 87.5497 104.276 87.4098 104.388 87.235ZM105.056 87.2C104.982 87.235 104.908 87.27 104.796 87.3399C104.61 87.4798 104.536 87.6196 104.573 87.7944C104.573 87.8993 104.61 88.0392 104.685 88.1441C104.759 88.249 104.871 88.4238 105.056 88.6336C105.242 88.8434 105.428 89.0531 105.577 89.193C105.874 89.5426 106.097 89.7524 106.171 89.8223C106.283 89.9272 106.357 89.9972 106.431 90.0321C106.617 90.137 106.803 90.137 106.951 89.9972C107.1 89.8573 107.174 89.6825 107.174 89.4028C107.137 89.0531 106.914 88.6336 106.505 88.179C106.171 87.7944 105.874 87.5147 105.651 87.3748C105.428 87.2 105.242 87.1651 105.056 87.2Z" fill="#230C0A"/>
<path d="M106.283 85.5919C106.32 85.5219 106.357 85.4869 106.394 85.452C106.543 85.3471 106.691 85.3121 106.877 85.3471C107.063 85.3821 107.249 85.452 107.397 85.5919C107.435 85.5919 107.435 85.6268 107.472 85.6618C107.546 85.7667 107.546 85.8366 107.472 85.9065C107.435 85.9415 107.397 85.9415 107.323 85.9415C107.286 85.9415 107.212 85.8716 107.1 85.8016C106.877 85.6268 106.729 85.5918 106.654 85.6618C106.543 85.7317 106.543 85.9065 106.58 86.1513C106.617 86.2562 106.654 86.3261 106.691 86.396C106.729 86.466 106.84 86.5708 106.989 86.7457C107.286 87.0953 107.546 87.3051 107.732 87.41C107.918 87.5149 108.178 87.5149 108.475 87.4799C108.661 87.445 108.772 87.41 108.847 87.445C108.921 87.445 108.995 87.4799 109.107 87.5149C109.218 87.5848 109.33 87.6547 109.404 87.7247C109.515 87.8296 109.59 87.9694 109.627 88.1442C109.664 88.2841 109.664 88.424 109.59 88.5638C109.515 88.7037 109.441 88.8086 109.33 88.9135C109.144 89.0533 108.921 89.1232 108.661 89.0883C108.475 89.0533 108.326 88.9484 108.215 88.8086C108.178 88.7736 108.178 88.7386 108.178 88.7037C108.178 88.6687 108.215 88.5988 108.252 88.5988C108.289 88.5638 108.364 88.5638 108.401 88.5638C108.475 88.5638 108.512 88.5988 108.549 88.6337C108.587 88.6687 108.661 88.7037 108.735 88.7386C108.809 88.7736 108.921 88.7386 108.995 88.6687C109.107 88.5988 109.144 88.4939 109.181 88.354C109.218 88.2142 109.181 88.1093 109.107 88.0044C109.032 87.9345 108.958 87.8995 108.809 87.8645C108.698 87.8296 108.549 87.8645 108.401 87.8995C108.141 87.9694 107.918 87.9345 107.695 87.8296C107.397 87.6897 107.1 87.41 106.729 87.0254C106.617 86.8855 106.506 86.7457 106.431 86.6408C106.32 86.466 106.283 86.2911 106.246 86.0813C106.171 85.8716 106.208 85.6967 106.283 85.5919Z" fill="#230C0A"/>
</svg>
