<svg width="18" height="18" viewBox="0 0 18 18" fill="none" xmlns="http://www.w3.org/2000/svg">
<path d="M17.9903 0.65332C17.9821 0.588684 17.9678 0.526428 17.9442 0.468018C17.9434 0.466553 17.9434 0.464539 17.9431 0.462708C17.9431 0.462341 17.9427 0.461975 17.9423 0.461609C17.9163 0.400085 17.8808 0.344238 17.8407 0.292419C17.8308 0.280151 17.8211 0.268066 17.8107 0.256531C17.7678 0.208191 17.7213 0.163513 17.6673 0.127075C17.6658 0.125977 17.664 0.12561 17.6625 0.124512C17.6104 0.0900879 17.5527 0.0640869 17.4922 0.0435791C17.4772 0.038269 17.4626 0.0336914 17.4472 0.0296631C17.3839 0.0124512 17.3187 0 17.25 0H12C11.586 0 11.25 0.335999 11.25 0.75C11.25 1.164 11.586 1.5 12 1.5H15.4391L10.9627 5.97638C9.76904 5.02167 8.29944 4.5 6.75 4.5C3.0282 4.5 0 7.5282 0 11.25C0 14.9718 3.0282 18 6.75 18C10.4718 18 13.5 14.9718 13.5 11.25C13.5 9.70129 12.9787 8.23206 12.0233 7.03729L16.5 2.56055V6C16.5 6.414 16.836 6.75 17.25 6.75C17.664 6.75 18 6.414 18 6V0.75C18 0.734253 17.9963 0.719238 17.9954 0.703857C17.9943 0.686646 17.9925 0.670166 17.9903 0.65332ZM6.75 16.5C3.85492 16.5 1.5 14.1451 1.5 11.25C1.5 8.35492 3.85492 6 6.75 6C8.15167 6 9.47131 6.54565 10.4636 7.53442C11.4543 8.52869 12 9.84833 12 11.25C12 14.1451 9.64508 16.5 6.75 16.5Z" fill="black"/>
</svg>
