<svg width="18" height="18" viewBox="0 0 18 18" fill="none" xmlns="http://www.w3.org/2000/svg">
<path d="M18 5.1293C18 2.29648 13.9706 0 9 0C4.0294 0 0 2.29648 0 5.1293C0 7.61505 3.10269 9.68762 7.22116 10.1582V13.7867H3.40335V15.8143H7.22116V18H10.7788V15.8143H14.5967V13.7867H10.7788V10.1582C14.8974 9.68762 18 7.61505 18 5.1293ZM3.40335 5.1293C3.40335 3.36769 5.90903 1.93964 9 1.93964C12.091 1.93964 14.5967 3.36769 14.5967 5.1293C14.5967 6.89091 12.091 8.31895 9 8.31895C5.90903 8.31895 3.40335 6.89091 3.40335 5.1293Z" fill="black"/>
</svg>
