<svg width="77" height="77" viewBox="0 0 77 77" fill="none" xmlns="http://www.w3.org/2000/svg">
<path fill-rule="evenodd" clip-rule="evenodd" d="M38.5 77C59.763 77 77 59.763 77 38.5C77 17.237 59.763 0 38.5 0C17.237 0 0 17.237 0 38.5C0 59.763 17.237 77 38.5 77Z" fill="#EE5B32"/>
<path fill-rule="evenodd" clip-rule="evenodd" d="M29.3473 27.917H52.2499C53.9988 27.917 55.4166 29.3348 55.4166 31.0837V46.917C55.4166 48.6659 53.9988 50.0837 52.2499 50.0837H29.3473C28.2885 50.0837 27.2998 49.5545 26.7125 48.6735L20.8492 39.8786C20.4946 39.3468 20.4946 38.6539 20.8492 38.122L26.7125 29.3271C27.2998 28.4461 28.2885 27.917 29.3473 27.917ZM24.0697 39.0003L29.3475 46.917H52.2501V31.0837H29.3475L24.0697 39.0003ZM31.6666 39.0003C31.6666 39.8748 30.9577 40.5837 30.0833 40.5837C29.2088 40.5837 28.4999 39.8748 28.4999 39.0003C28.4999 38.1259 29.2088 37.417 30.0833 37.417C30.9577 37.417 31.6666 38.1259 31.6666 39.0003Z" fill="white"/>
</svg>
