<svg width="77" height="77" viewBox="0 0 77 77" fill="none" xmlns="http://www.w3.org/2000/svg">
<path fill-rule="evenodd" clip-rule="evenodd" d="M38.5 77C59.763 77 77 59.763 77 38.5C77 17.237 59.763 0 38.5 0C17.237 0 0 17.237 0 38.5C0 59.763 17.237 77 38.5 77Z" fill="#EE5B32"/>
<path fill-rule="evenodd" clip-rule="evenodd" d="M39.561 27.3062C40.848 26.6762 41.9707 26.4687 43.7125 26.4688C48.1697 26.4872 51.4688 30.2464 51.4688 35.0349C51.4688 38.6898 49.4309 42.2204 45.635 45.6344C43.6425 47.4264 41.0986 49.1998 39.2768 50.1432L38.2344 50.683L37.192 50.1432C35.3701 49.1998 32.8262 47.4264 30.8338 45.6344C27.0379 42.2204 25 38.6898 25 35.0349C25 30.1951 28.2682 26.4688 32.7656 26.4688C34.4449 26.4688 35.6252 26.6959 36.9372 27.3448C37.394 27.5707 37.8231 27.8387 38.2223 28.148C38.6375 27.8203 39.0845 27.5394 39.561 27.3062Z" fill="white"/>
</svg>
