<svg width="77" height="77" viewBox="0 0 77 77" fill="none" xmlns="http://www.w3.org/2000/svg">
<path fill-rule="evenodd" clip-rule="evenodd" d="M38.5 77C59.763 77 77 59.763 77 38.5C77 17.237 59.763 0 38.5 0C17.237 0 0 17.237 0 38.5C0 59.763 17.237 77 38.5 77Z" fill="#EE5B32"/>
<path fill-rule="evenodd" clip-rule="evenodd" d="M25.2495 34.25L38.7525 21.4972L52.2555 34.25H52.2521V55.5H25.2521V34.25H25.2495ZM20.7521 38.4976L17.4297 41.6354L14.25 38.6323L35.5732 18.4937C37.3291 16.8354 40.1759 16.8354 41.9318 18.4937L63.255 38.6323L60.0753 41.6354L56.7521 38.4968V55.5C56.7521 57.8472 54.7374 59.75 52.2521 59.75H25.2521C22.7668 59.75 20.7521 57.8472 20.7521 55.5V38.4976Z" fill="white"/>
</svg>
